<?xml version="1.0" encoding="utf-8" standalone="no"?>
<!DOCTYPE svg PUBLIC "-//W3C//DTD SVG 1.1//EN"
  "http://www.w3.org/Graphics/SVG/1.1/DTD/svg11.dtd">
<svg xmlns:xlink="http://www.w3.org/1999/xlink" width="1720.8745pt" height="637.6427pt" viewBox="0 0 1720.8745 637.6427" xmlns="http://www.w3.org/2000/svg" version="1.1">
 <metadata>
  <rdf:RDF xmlns:dc="http://purl.org/dc/elements/1.1/" xmlns:cc="http://creativecommons.org/ns#" xmlns:rdf="http://www.w3.org/1999/02/22-rdf-syntax-ns#">
   <cc:Work>
    <dc:type rdf:resource="http://purl.org/dc/dcmitype/StillImage"/>
    <dc:date>2023-07-30T01:13:55.880028</dc:date>
    <dc:format>image/svg+xml</dc:format>
    <dc:creator>
     <cc:Agent>
      <dc:title>Matplotlib v3.7.2, https://matplotlib.org/</dc:title>
     </cc:Agent>
    </dc:creator>
   </cc:Work>
  </rdf:RDF>
 </metadata>
 <defs>
  <style type="text/css">*{stroke-linejoin: round; stroke-linecap: butt}</style>
 </defs>
 <g id="figure_1">
  <g id="patch_1">
   <path d="M 0 637.6427 
L 1720.8745 637.6427 
L 1720.8745 0 
L 0 0 
z
" style="fill: #ffffff"/>
  </g>
  <g id="axes_1">
   <g id="patch_2">
    <path d="M 39.6745 580.7301 
L 532.027441 580.7301 
L 532.027441 26.3301 
L 39.6745 26.3301 
z
" style="fill: #ffffff"/>
   </g>
   <g id="patch_3">
    <path d="M 49.142826 280.621009 
L 68.079477 280.621009 
L 68.079477 234.802827 
L 49.142826 234.802827 
z
" clip-path="url(#p326b711656)" style="fill: #ffa500"/>
   </g>
   <g id="patch_4">
    <path d="M 87.016129 280.621009 
L 105.952781 280.621009 
L 105.952781 280.621009 
L 87.016129 280.621009 
z
" clip-path="url(#p326b711656)" style="fill: #ffa500"/>
   </g>
   <g id="patch_5">
    <path d="M 124.889432 280.621009 
L 143.826084 280.621009 
L 143.826084 280.621009 
L 124.889432 280.621009 
z
" clip-path="url(#p326b711656)" style="fill: #ffa500"/>
   </g>
   <g id="patch_6">
    <path d="M 162.762735 280.621009 
L 181.699387 280.621009 
L 181.699387 280.621009 
L 162.762735 280.621009 
z
" clip-path="url(#p326b711656)" style="fill: #ffa500"/>
   </g>
   <g id="patch_7">
    <path d="M 200.636038 280.621009 
L 219.57269 280.621009 
L 219.57269 280.621009 
L 200.636038 280.621009 
z
" clip-path="url(#p326b711656)" style="fill: #ffa500"/>
   </g>
   <g id="patch_8">
    <path d="M 238.509342 280.621009 
L 257.445993 280.621009 
L 257.445993 280.621009 
L 238.509342 280.621009 
z
" clip-path="url(#p326b711656)" style="fill: #ffa500"/>
   </g>
   <g id="patch_9">
    <path d="M 276.382645 280.621009 
L 295.319296 280.621009 
L 295.319296 280.621009 
L 276.382645 280.621009 
z
" clip-path="url(#p326b711656)" style="fill: #ffa500"/>
   </g>
   <g id="patch_10">
    <path d="M 314.255948 280.621009 
L 333.1926 280.621009 
L 333.1926 234.802827 
L 314.255948 234.802827 
z
" clip-path="url(#p326b711656)" style="fill: #ffa500"/>
   </g>
   <g id="patch_11">
    <path d="M 352.129251 280.621009 
L 371.065903 280.621009 
L 371.065903 280.621009 
L 352.129251 280.621009 
z
" clip-path="url(#p326b711656)" style="fill: #ffa500"/>
   </g>
   <g id="patch_12">
    <path d="M 390.002554 280.621009 
L 408.939206 280.621009 
L 408.939206 280.621009 
L 390.002554 280.621009 
z
" clip-path="url(#p326b711656)" style="fill: #ffa500"/>
   </g>
   <g id="patch_13">
    <path d="M 427.875857 280.621009 
L 446.812509 280.621009 
L 446.812509 280.621009 
L 427.875857 280.621009 
z
" clip-path="url(#p326b711656)" style="fill: #ffa500"/>
   </g>
   <g id="patch_14">
    <path d="M 465.749161 280.621009 
L 484.685812 280.621009 
L 484.685812 280.621009 
L 465.749161 280.621009 
z
" clip-path="url(#p326b711656)" style="fill: #ffa500"/>
   </g>
   <g id="patch_15">
    <path d="M 503.622464 280.621009 
L 522.559115 280.621009 
L 522.559115 280.621009 
L 503.622464 280.621009 
z
" clip-path="url(#p326b711656)" style="fill: #ffa500"/>
   </g>
   <g id="patch_16">
    <path d="M 49.142826 280.621009 
L 68.079477 280.621009 
L 68.079477 280.621009 
L 49.142826 280.621009 
z
" clip-path="url(#p326b711656)" style="fill: #ff0000"/>
   </g>
   <g id="patch_17">
    <path d="M 87.016129 280.621009 
L 105.952781 280.621009 
L 105.952781 280.621009 
L 87.016129 280.621009 
z
" clip-path="url(#p326b711656)" style="fill: #ff0000"/>
   </g>
   <g id="patch_18">
    <path d="M 124.889432 280.621009 
L 143.826084 280.621009 
L 143.826084 97.348282 
L 124.889432 97.348282 
z
" clip-path="url(#p326b711656)" style="fill: #ff0000"/>
   </g>
   <g id="patch_19">
    <path d="M 162.762735 280.621009 
L 181.699387 280.621009 
L 181.699387 280.621009 
L 162.762735 280.621009 
z
" clip-path="url(#p326b711656)" style="fill: #ff0000"/>
   </g>
   <g id="patch_20">
    <path d="M 200.636038 280.621009 
L 219.57269 280.621009 
L 219.57269 234.802827 
L 200.636038 234.802827 
z
" clip-path="url(#p326b711656)" style="fill: #ff0000"/>
   </g>
   <g id="patch_21">
    <path d="M 238.509342 280.621009 
L 257.445993 280.621009 
L 257.445993 188.984645 
L 238.509342 188.984645 
z
" clip-path="url(#p326b711656)" style="fill: #ff0000"/>
   </g>
   <g id="patch_22">
    <path d="M 276.382645 280.621009 
L 295.319296 280.621009 
L 295.319296 234.802827 
L 276.382645 234.802827 
z
" clip-path="url(#p326b711656)" style="fill: #ff0000"/>
   </g>
   <g id="patch_23">
    <path d="M 314.255948 280.621009 
L 333.1926 280.621009 
L 333.1926 280.621009 
L 314.255948 280.621009 
z
" clip-path="url(#p326b711656)" style="fill: #ff0000"/>
   </g>
   <g id="patch_24">
    <path d="M 352.129251 280.621009 
L 371.065903 280.621009 
L 371.065903 280.621009 
L 352.129251 280.621009 
z
" clip-path="url(#p326b711656)" style="fill: #ff0000"/>
   </g>
   <g id="patch_25">
    <path d="M 390.002554 280.621009 
L 408.939206 280.621009 
L 408.939206 280.621009 
L 390.002554 280.621009 
z
" clip-path="url(#p326b711656)" style="fill: #ff0000"/>
   </g>
   <g id="patch_26">
    <path d="M 427.875857 280.621009 
L 446.812509 280.621009 
L 446.812509 280.621009 
L 427.875857 280.621009 
z
" clip-path="url(#p326b711656)" style="fill: #ff0000"/>
   </g>
   <g id="patch_27">
    <path d="M 465.749161 280.621009 
L 484.685812 280.621009 
L 484.685812 234.802827 
L 465.749161 234.802827 
z
" clip-path="url(#p326b711656)" style="fill: #ff0000"/>
   </g>
   <g id="patch_28">
    <path d="M 503.622464 280.621009 
L 522.559115 280.621009 
L 522.559115 234.802827 
L 503.622464 234.802827 
z
" clip-path="url(#p326b711656)" style="fill: #ff0000"/>
   </g>
   <g id="patch_29">
    <path d="M 49.142826 280.621009 
L 68.079477 280.621009 
L 68.079477 326.439191 
L 49.142826 326.439191 
z
" clip-path="url(#p326b711656)"/>
   </g>
   <g id="patch_30">
    <path d="M 87.016129 280.621009 
L 105.952781 280.621009 
L 105.952781 509.711918 
L 87.016129 509.711918 
z
" clip-path="url(#p326b711656)"/>
   </g>
   <g id="patch_31">
    <path d="M 124.889432 280.621009 
L 143.826084 280.621009 
L 143.826084 418.075555 
L 124.889432 418.075555 
z
" clip-path="url(#p326b711656)"/>
   </g>
   <g id="patch_32">
    <path d="M 162.762735 280.621009 
L 181.699387 280.621009 
L 181.699387 418.075555 
L 162.762735 418.075555 
z
" clip-path="url(#p326b711656)"/>
   </g>
   <g id="patch_33">
    <path d="M 200.636038 280.621009 
L 219.57269 280.621009 
L 219.57269 463.893736 
L 200.636038 463.893736 
z
" clip-path="url(#p326b711656)"/>
   </g>
   <g id="patch_34">
    <path d="M 238.509342 280.621009 
L 257.445993 280.621009 
L 257.445993 509.711918 
L 238.509342 509.711918 
z
" clip-path="url(#p326b711656)"/>
   </g>
   <g id="patch_35">
    <path d="M 276.382645 280.621009 
L 295.319296 280.621009 
L 295.319296 326.439191 
L 276.382645 326.439191 
z
" clip-path="url(#p326b711656)"/>
   </g>
   <g id="patch_36">
    <path d="M 314.255948 280.621009 
L 333.1926 280.621009 
L 333.1926 326.439191 
L 314.255948 326.439191 
z
" clip-path="url(#p326b711656)"/>
   </g>
   <g id="patch_37">
    <path d="M 352.129251 280.621009 
L 371.065903 280.621009 
L 371.065903 555.5301 
L 352.129251 555.5301 
z
" clip-path="url(#p326b711656)"/>
   </g>
   <g id="patch_38">
    <path d="M 390.002554 280.621009 
L 408.939206 280.621009 
L 408.939206 372.257373 
L 390.002554 372.257373 
z
" clip-path="url(#p326b711656)"/>
   </g>
   <g id="patch_39">
    <path d="M 427.875857 280.621009 
L 446.812509 280.621009 
L 446.812509 280.621009 
L 427.875857 280.621009 
z
" clip-path="url(#p326b711656)"/>
   </g>
   <g id="patch_40">
    <path d="M 465.749161 280.621009 
L 484.685812 280.621009 
L 484.685812 372.257373 
L 465.749161 372.257373 
z
" clip-path="url(#p326b711656)"/>
   </g>
   <g id="patch_41">
    <path d="M 503.622464 280.621009 
L 522.559115 280.621009 
L 522.559115 372.257373 
L 503.622464 372.257373 
z
" clip-path="url(#p326b711656)"/>
   </g>
   <g id="matplotlib.axis_1">
    <g id="xtick_1">
     <g id="line2d_1">
      <defs>
       <path id="m38eedd3d48" d="M 0 0 
L 0 3.5 
" style="stroke: #000000; stroke-width: 0.8"/>
      </defs>
      <g>
       <use xlink:href="#m38eedd3d48" x="58.611152" y="580.7301" style="stroke: #000000; stroke-width: 0.8"/>
      </g>
     </g>
     <g id="text_1">
      <!-- 0 -->
      <g transform="translate(63.379352 598.7245) rotate(-90) scale(0.1728 -0.1728)">
       <defs>
        <path id="DejaVuSans-30" d="M 2034 4250 
Q 1547 4250 1301 3770 
Q 1056 3291 1056 2328 
Q 1056 1369 1301 889 
Q 1547 409 2034 409 
Q 2525 409 2770 889 
Q 3016 1369 3016 2328 
Q 3016 3291 2770 3770 
Q 2525 4250 2034 4250 
z
M 2034 4750 
Q 2819 4750 3233 4129 
Q 3647 3509 3647 2328 
Q 3647 1150 3233 529 
Q 2819 -91 2034 -91 
Q 1250 -91 836 529 
Q 422 1150 422 2328 
Q 422 3509 836 4129 
Q 1250 4750 2034 4750 
z
" transform="scale(0.015625)"/>
       </defs>
       <use xlink:href="#DejaVuSans-30"/>
      </g>
     </g>
    </g>
    <g id="xtick_2">
     <g id="line2d_2">
      <g>
       <use xlink:href="#m38eedd3d48" x="96.484455" y="580.7301" style="stroke: #000000; stroke-width: 0.8"/>
      </g>
     </g>
     <g id="text_2">
      <!-- 1 -->
      <g transform="translate(101.252655 598.7245) rotate(-90) scale(0.1728 -0.1728)">
       <defs>
        <path id="DejaVuSans-31" d="M 794 531 
L 1825 531 
L 1825 4091 
L 703 3866 
L 703 4441 
L 1819 4666 
L 2450 4666 
L 2450 531 
L 3481 531 
L 3481 0 
L 794 0 
L 794 531 
z
" transform="scale(0.015625)"/>
       </defs>
       <use xlink:href="#DejaVuSans-31"/>
      </g>
     </g>
    </g>
    <g id="xtick_3">
     <g id="line2d_3">
      <g>
       <use xlink:href="#m38eedd3d48" x="134.357758" y="580.7301" style="stroke: #000000; stroke-width: 0.8"/>
      </g>
     </g>
     <g id="text_3">
      <!-- 2 -->
      <g transform="translate(139.125958 598.7245) rotate(-90) scale(0.1728 -0.1728)">
       <defs>
        <path id="DejaVuSans-32" d="M 1228 531 
L 3431 531 
L 3431 0 
L 469 0 
L 469 531 
Q 828 903 1448 1529 
Q 2069 2156 2228 2338 
Q 2531 2678 2651 2914 
Q 2772 3150 2772 3378 
Q 2772 3750 2511 3984 
Q 2250 4219 1831 4219 
Q 1534 4219 1204 4116 
Q 875 4013 500 3803 
L 500 4441 
Q 881 4594 1212 4672 
Q 1544 4750 1819 4750 
Q 2544 4750 2975 4387 
Q 3406 4025 3406 3419 
Q 3406 3131 3298 2873 
Q 3191 2616 2906 2266 
Q 2828 2175 2409 1742 
Q 1991 1309 1228 531 
z
" transform="scale(0.015625)"/>
       </defs>
       <use xlink:href="#DejaVuSans-32"/>
      </g>
     </g>
    </g>
    <g id="xtick_4">
     <g id="line2d_4">
      <g>
       <use xlink:href="#m38eedd3d48" x="172.231061" y="580.7301" style="stroke: #000000; stroke-width: 0.8"/>
      </g>
     </g>
     <g id="text_4">
      <!-- 3 -->
      <g transform="translate(176.999261 598.7245) rotate(-90) scale(0.1728 -0.1728)">
       <defs>
        <path id="DejaVuSans-33" d="M 2597 2516 
Q 3050 2419 3304 2112 
Q 3559 1806 3559 1356 
Q 3559 666 3084 287 
Q 2609 -91 1734 -91 
Q 1441 -91 1130 -33 
Q 819 25 488 141 
L 488 750 
Q 750 597 1062 519 
Q 1375 441 1716 441 
Q 2309 441 2620 675 
Q 2931 909 2931 1356 
Q 2931 1769 2642 2001 
Q 2353 2234 1838 2234 
L 1294 2234 
L 1294 2753 
L 1863 2753 
Q 2328 2753 2575 2939 
Q 2822 3125 2822 3475 
Q 2822 3834 2567 4026 
Q 2313 4219 1838 4219 
Q 1578 4219 1281 4162 
Q 984 4106 628 3988 
L 628 4550 
Q 988 4650 1302 4700 
Q 1616 4750 1894 4750 
Q 2613 4750 3031 4423 
Q 3450 4097 3450 3541 
Q 3450 3153 3228 2886 
Q 3006 2619 2597 2516 
z
" transform="scale(0.015625)"/>
       </defs>
       <use xlink:href="#DejaVuSans-33"/>
      </g>
     </g>
    </g>
    <g id="xtick_5">
     <g id="line2d_5">
      <g>
       <use xlink:href="#m38eedd3d48" x="210.104364" y="580.7301" style="stroke: #000000; stroke-width: 0.8"/>
      </g>
     </g>
     <g id="text_5">
      <!-- 4 -->
      <g transform="translate(214.872564 598.7245) rotate(-90) scale(0.1728 -0.1728)">
       <defs>
        <path id="DejaVuSans-34" d="M 2419 4116 
L 825 1625 
L 2419 1625 
L 2419 4116 
z
M 2253 4666 
L 3047 4666 
L 3047 1625 
L 3713 1625 
L 3713 1100 
L 3047 1100 
L 3047 0 
L 2419 0 
L 2419 1100 
L 313 1100 
L 313 1709 
L 2253 4666 
z
" transform="scale(0.015625)"/>
       </defs>
       <use xlink:href="#DejaVuSans-34"/>
      </g>
     </g>
    </g>
    <g id="xtick_6">
     <g id="line2d_6">
      <g>
       <use xlink:href="#m38eedd3d48" x="247.977667" y="580.7301" style="stroke: #000000; stroke-width: 0.8"/>
      </g>
     </g>
     <g id="text_6">
      <!-- 5 -->
      <g transform="translate(252.745867 598.7245) rotate(-90) scale(0.1728 -0.1728)">
       <defs>
        <path id="DejaVuSans-35" d="M 691 4666 
L 3169 4666 
L 3169 4134 
L 1269 4134 
L 1269 2991 
Q 1406 3038 1543 3061 
Q 1681 3084 1819 3084 
Q 2600 3084 3056 2656 
Q 3513 2228 3513 1497 
Q 3513 744 3044 326 
Q 2575 -91 1722 -91 
Q 1428 -91 1123 -41 
Q 819 9 494 109 
L 494 744 
Q 775 591 1075 516 
Q 1375 441 1709 441 
Q 2250 441 2565 725 
Q 2881 1009 2881 1497 
Q 2881 1984 2565 2268 
Q 2250 2553 1709 2553 
Q 1456 2553 1204 2497 
Q 953 2441 691 2322 
L 691 4666 
z
" transform="scale(0.015625)"/>
       </defs>
       <use xlink:href="#DejaVuSans-35"/>
      </g>
     </g>
    </g>
    <g id="xtick_7">
     <g id="line2d_7">
      <g>
       <use xlink:href="#m38eedd3d48" x="285.850971" y="580.7301" style="stroke: #000000; stroke-width: 0.8"/>
      </g>
     </g>
     <g id="text_7">
      <!-- 6 -->
      <g transform="translate(290.619171 598.7245) rotate(-90) scale(0.1728 -0.1728)">
       <defs>
        <path id="DejaVuSans-36" d="M 2113 2584 
Q 1688 2584 1439 2293 
Q 1191 2003 1191 1497 
Q 1191 994 1439 701 
Q 1688 409 2113 409 
Q 2538 409 2786 701 
Q 3034 994 3034 1497 
Q 3034 2003 2786 2293 
Q 2538 2584 2113 2584 
z
M 3366 4563 
L 3366 3988 
Q 3128 4100 2886 4159 
Q 2644 4219 2406 4219 
Q 1781 4219 1451 3797 
Q 1122 3375 1075 2522 
Q 1259 2794 1537 2939 
Q 1816 3084 2150 3084 
Q 2853 3084 3261 2657 
Q 3669 2231 3669 1497 
Q 3669 778 3244 343 
Q 2819 -91 2113 -91 
Q 1303 -91 875 529 
Q 447 1150 447 2328 
Q 447 3434 972 4092 
Q 1497 4750 2381 4750 
Q 2619 4750 2861 4703 
Q 3103 4656 3366 4563 
z
" transform="scale(0.015625)"/>
       </defs>
       <use xlink:href="#DejaVuSans-36"/>
      </g>
     </g>
    </g>
    <g id="xtick_8">
     <g id="line2d_8">
      <g>
       <use xlink:href="#m38eedd3d48" x="323.724274" y="580.7301" style="stroke: #000000; stroke-width: 0.8"/>
      </g>
     </g>
     <g id="text_8">
      <!-- 7 -->
      <g transform="translate(328.492474 598.7245) rotate(-90) scale(0.1728 -0.1728)">
       <defs>
        <path id="DejaVuSans-37" d="M 525 4666 
L 3525 4666 
L 3525 4397 
L 1831 0 
L 1172 0 
L 2766 4134 
L 525 4134 
L 525 4666 
z
" transform="scale(0.015625)"/>
       </defs>
       <use xlink:href="#DejaVuSans-37"/>
      </g>
     </g>
    </g>
    <g id="xtick_9">
     <g id="line2d_9">
      <g>
       <use xlink:href="#m38eedd3d48" x="361.597577" y="580.7301" style="stroke: #000000; stroke-width: 0.8"/>
      </g>
     </g>
     <g id="text_9">
      <!-- 8 -->
      <g transform="translate(366.365777 598.7245) rotate(-90) scale(0.1728 -0.1728)">
       <defs>
        <path id="DejaVuSans-38" d="M 2034 2216 
Q 1584 2216 1326 1975 
Q 1069 1734 1069 1313 
Q 1069 891 1326 650 
Q 1584 409 2034 409 
Q 2484 409 2743 651 
Q 3003 894 3003 1313 
Q 3003 1734 2745 1975 
Q 2488 2216 2034 2216 
z
M 1403 2484 
Q 997 2584 770 2862 
Q 544 3141 544 3541 
Q 544 4100 942 4425 
Q 1341 4750 2034 4750 
Q 2731 4750 3128 4425 
Q 3525 4100 3525 3541 
Q 3525 3141 3298 2862 
Q 3072 2584 2669 2484 
Q 3125 2378 3379 2068 
Q 3634 1759 3634 1313 
Q 3634 634 3220 271 
Q 2806 -91 2034 -91 
Q 1263 -91 848 271 
Q 434 634 434 1313 
Q 434 1759 690 2068 
Q 947 2378 1403 2484 
z
M 1172 3481 
Q 1172 3119 1398 2916 
Q 1625 2713 2034 2713 
Q 2441 2713 2670 2916 
Q 2900 3119 2900 3481 
Q 2900 3844 2670 4047 
Q 2441 4250 2034 4250 
Q 1625 4250 1398 4047 
Q 1172 3844 1172 3481 
z
" transform="scale(0.015625)"/>
       </defs>
       <use xlink:href="#DejaVuSans-38"/>
      </g>
     </g>
    </g>
    <g id="xtick_10">
     <g id="line2d_10">
      <g>
       <use xlink:href="#m38eedd3d48" x="399.47088" y="580.7301" style="stroke: #000000; stroke-width: 0.8"/>
      </g>
     </g>
     <g id="text_10">
      <!-- 9 -->
      <g transform="translate(404.23908 598.7245) rotate(-90) scale(0.1728 -0.1728)">
       <defs>
        <path id="DejaVuSans-39" d="M 703 97 
L 703 672 
Q 941 559 1184 500 
Q 1428 441 1663 441 
Q 2288 441 2617 861 
Q 2947 1281 2994 2138 
Q 2813 1869 2534 1725 
Q 2256 1581 1919 1581 
Q 1219 1581 811 2004 
Q 403 2428 403 3163 
Q 403 3881 828 4315 
Q 1253 4750 1959 4750 
Q 2769 4750 3195 4129 
Q 3622 3509 3622 2328 
Q 3622 1225 3098 567 
Q 2575 -91 1691 -91 
Q 1453 -91 1209 -44 
Q 966 3 703 97 
z
M 1959 2075 
Q 2384 2075 2632 2365 
Q 2881 2656 2881 3163 
Q 2881 3666 2632 3958 
Q 2384 4250 1959 4250 
Q 1534 4250 1286 3958 
Q 1038 3666 1038 3163 
Q 1038 2656 1286 2365 
Q 1534 2075 1959 2075 
z
" transform="scale(0.015625)"/>
       </defs>
       <use xlink:href="#DejaVuSans-39"/>
      </g>
     </g>
    </g>
    <g id="xtick_11">
     <g id="line2d_11">
      <g>
       <use xlink:href="#m38eedd3d48" x="437.344183" y="580.7301" style="stroke: #000000; stroke-width: 0.8"/>
      </g>
     </g>
     <g id="text_11">
      <!-- 10 -->
      <g transform="translate(442.112383 609.7189) rotate(-90) scale(0.1728 -0.1728)">
       <use xlink:href="#DejaVuSans-31"/>
       <use xlink:href="#DejaVuSans-30" x="63.623047"/>
      </g>
     </g>
    </g>
    <g id="xtick_12">
     <g id="line2d_12">
      <g>
       <use xlink:href="#m38eedd3d48" x="475.217486" y="580.7301" style="stroke: #000000; stroke-width: 0.8"/>
      </g>
     </g>
     <g id="text_12">
      <!-- 11 -->
      <g transform="translate(479.985686 609.7189) rotate(-90) scale(0.1728 -0.1728)">
       <use xlink:href="#DejaVuSans-31"/>
       <use xlink:href="#DejaVuSans-31" x="63.623047"/>
      </g>
     </g>
    </g>
    <g id="xtick_13">
     <g id="line2d_13">
      <g>
       <use xlink:href="#m38eedd3d48" x="513.09079" y="580.7301" style="stroke: #000000; stroke-width: 0.8"/>
      </g>
     </g>
     <g id="text_13">
      <!-- 12 -->
      <g transform="translate(517.85899 609.7189) rotate(-90) scale(0.1728 -0.1728)">
       <use xlink:href="#DejaVuSans-31"/>
       <use xlink:href="#DejaVuSans-32" x="63.623047"/>
      </g>
     </g>
    </g>
    <g id="text_14">
     <!-- Sequence nb -->
     <g transform="translate(229.523571 626.849) scale(0.1728 -0.1728)">
      <defs>
       <path id="DejaVuSans-53" d="M 3425 4513 
L 3425 3897 
Q 3066 4069 2747 4153 
Q 2428 4238 2131 4238 
Q 1616 4238 1336 4038 
Q 1056 3838 1056 3469 
Q 1056 3159 1242 3001 
Q 1428 2844 1947 2747 
L 2328 2669 
Q 3034 2534 3370 2195 
Q 3706 1856 3706 1288 
Q 3706 609 3251 259 
Q 2797 -91 1919 -91 
Q 1588 -91 1214 -16 
Q 841 59 441 206 
L 441 856 
Q 825 641 1194 531 
Q 1563 422 1919 422 
Q 2459 422 2753 634 
Q 3047 847 3047 1241 
Q 3047 1584 2836 1778 
Q 2625 1972 2144 2069 
L 1759 2144 
Q 1053 2284 737 2584 
Q 422 2884 422 3419 
Q 422 4038 858 4394 
Q 1294 4750 2059 4750 
Q 2388 4750 2728 4690 
Q 3069 4631 3425 4513 
z
" transform="scale(0.015625)"/>
       <path id="DejaVuSans-65" d="M 3597 1894 
L 3597 1613 
L 953 1613 
Q 991 1019 1311 708 
Q 1631 397 2203 397 
Q 2534 397 2845 478 
Q 3156 559 3463 722 
L 3463 178 
Q 3153 47 2828 -22 
Q 2503 -91 2169 -91 
Q 1331 -91 842 396 
Q 353 884 353 1716 
Q 353 2575 817 3079 
Q 1281 3584 2069 3584 
Q 2775 3584 3186 3129 
Q 3597 2675 3597 1894 
z
M 3022 2063 
Q 3016 2534 2758 2815 
Q 2500 3097 2075 3097 
Q 1594 3097 1305 2825 
Q 1016 2553 972 2059 
L 3022 2063 
z
" transform="scale(0.015625)"/>
       <path id="DejaVuSans-71" d="M 947 1747 
Q 947 1113 1208 752 
Q 1469 391 1925 391 
Q 2381 391 2643 752 
Q 2906 1113 2906 1747 
Q 2906 2381 2643 2742 
Q 2381 3103 1925 3103 
Q 1469 3103 1208 2742 
Q 947 2381 947 1747 
z
M 2906 525 
Q 2725 213 2448 61 
Q 2172 -91 1784 -91 
Q 1150 -91 751 415 
Q 353 922 353 1747 
Q 353 2572 751 3078 
Q 1150 3584 1784 3584 
Q 2172 3584 2448 3432 
Q 2725 3281 2906 2969 
L 2906 3500 
L 3481 3500 
L 3481 -1331 
L 2906 -1331 
L 2906 525 
z
" transform="scale(0.015625)"/>
       <path id="DejaVuSans-75" d="M 544 1381 
L 544 3500 
L 1119 3500 
L 1119 1403 
Q 1119 906 1312 657 
Q 1506 409 1894 409 
Q 2359 409 2629 706 
Q 2900 1003 2900 1516 
L 2900 3500 
L 3475 3500 
L 3475 0 
L 2900 0 
L 2900 538 
Q 2691 219 2414 64 
Q 2138 -91 1772 -91 
Q 1169 -91 856 284 
Q 544 659 544 1381 
z
M 1991 3584 
L 1991 3584 
z
" transform="scale(0.015625)"/>
       <path id="DejaVuSans-6e" d="M 3513 2113 
L 3513 0 
L 2938 0 
L 2938 2094 
Q 2938 2591 2744 2837 
Q 2550 3084 2163 3084 
Q 1697 3084 1428 2787 
Q 1159 2491 1159 1978 
L 1159 0 
L 581 0 
L 581 3500 
L 1159 3500 
L 1159 2956 
Q 1366 3272 1645 3428 
Q 1925 3584 2291 3584 
Q 2894 3584 3203 3211 
Q 3513 2838 3513 2113 
z
" transform="scale(0.015625)"/>
       <path id="DejaVuSans-63" d="M 3122 3366 
L 3122 2828 
Q 2878 2963 2633 3030 
Q 2388 3097 2138 3097 
Q 1578 3097 1268 2742 
Q 959 2388 959 1747 
Q 959 1106 1268 751 
Q 1578 397 2138 397 
Q 2388 397 2633 464 
Q 2878 531 3122 666 
L 3122 134 
Q 2881 22 2623 -34 
Q 2366 -91 2075 -91 
Q 1284 -91 818 406 
Q 353 903 353 1747 
Q 353 2603 823 3093 
Q 1294 3584 2113 3584 
Q 2378 3584 2631 3529 
Q 2884 3475 3122 3366 
z
" transform="scale(0.015625)"/>
       <path id="DejaVuSans-20" transform="scale(0.015625)"/>
       <path id="DejaVuSans-62" d="M 3116 1747 
Q 3116 2381 2855 2742 
Q 2594 3103 2138 3103 
Q 1681 3103 1420 2742 
Q 1159 2381 1159 1747 
Q 1159 1113 1420 752 
Q 1681 391 2138 391 
Q 2594 391 2855 752 
Q 3116 1113 3116 1747 
z
M 1159 2969 
Q 1341 3281 1617 3432 
Q 1894 3584 2278 3584 
Q 2916 3584 3314 3078 
Q 3713 2572 3713 1747 
Q 3713 922 3314 415 
Q 2916 -91 2278 -91 
Q 1894 -91 1617 61 
Q 1341 213 1159 525 
L 1159 0 
L 581 0 
L 581 4863 
L 1159 4863 
L 1159 2969 
z
" transform="scale(0.015625)"/>
      </defs>
      <use xlink:href="#DejaVuSans-53"/>
      <use xlink:href="#DejaVuSans-65" x="63.476562"/>
      <use xlink:href="#DejaVuSans-71" x="125"/>
      <use xlink:href="#DejaVuSans-75" x="188.476562"/>
      <use xlink:href="#DejaVuSans-65" x="251.855469"/>
      <use xlink:href="#DejaVuSans-6e" x="313.378906"/>
      <use xlink:href="#DejaVuSans-63" x="376.757812"/>
      <use xlink:href="#DejaVuSans-65" x="431.738281"/>
      <use xlink:href="#DejaVuSans-20" x="493.261719"/>
      <use xlink:href="#DejaVuSans-6e" x="525.048828"/>
      <use xlink:href="#DejaVuSans-62" x="588.427734"/>
     </g>
    </g>
   </g>
   <g id="matplotlib.axis_2">
    <g id="ytick_1">
     <g id="line2d_14">
      <defs>
       <path id="m70c8d4ccd8" d="M 0 0 
L -3.5 0 
" style="stroke: #000000; stroke-width: 0.8"/>
      </defs>
      <g>
       <use xlink:href="#m70c8d4ccd8" x="39.6745" y="555.5301" style="stroke: #000000; stroke-width: 0.8"/>
      </g>
     </g>
     <g id="text_15">
      <!-- −6 -->
      <g transform="translate(7.2 562.09515) scale(0.1728 -0.1728)">
       <defs>
        <path id="DejaVuSans-2212" d="M 678 2272 
L 4684 2272 
L 4684 1741 
L 678 1741 
L 678 2272 
z
" transform="scale(0.015625)"/>
       </defs>
       <use xlink:href="#DejaVuSans-2212"/>
       <use xlink:href="#DejaVuSans-36" x="83.789062"/>
      </g>
     </g>
    </g>
    <g id="ytick_2">
     <g id="line2d_15">
      <g>
       <use xlink:href="#m70c8d4ccd8" x="39.6745" y="463.893736" style="stroke: #000000; stroke-width: 0.8"/>
      </g>
     </g>
     <g id="text_16">
      <!-- −4 -->
      <g transform="translate(7.2 470.458786) scale(0.1728 -0.1728)">
       <use xlink:href="#DejaVuSans-2212"/>
       <use xlink:href="#DejaVuSans-34" x="83.789062"/>
      </g>
     </g>
    </g>
    <g id="ytick_3">
     <g id="line2d_16">
      <g>
       <use xlink:href="#m70c8d4ccd8" x="39.6745" y="372.257373" style="stroke: #000000; stroke-width: 0.8"/>
      </g>
     </g>
     <g id="text_17">
      <!-- −2 -->
      <g transform="translate(7.2 378.822423) scale(0.1728 -0.1728)">
       <use xlink:href="#DejaVuSans-2212"/>
       <use xlink:href="#DejaVuSans-32" x="83.789062"/>
      </g>
     </g>
    </g>
    <g id="ytick_4">
     <g id="line2d_17">
      <g>
       <use xlink:href="#m70c8d4ccd8" x="39.6745" y="280.621009" style="stroke: #000000; stroke-width: 0.8"/>
      </g>
     </g>
     <g id="text_18">
      <!-- 0 -->
      <g transform="translate(21.6801 287.186059) scale(0.1728 -0.1728)">
       <use xlink:href="#DejaVuSans-30"/>
      </g>
     </g>
    </g>
    <g id="ytick_5">
     <g id="line2d_18">
      <g>
       <use xlink:href="#m70c8d4ccd8" x="39.6745" y="188.984645" style="stroke: #000000; stroke-width: 0.8"/>
      </g>
     </g>
     <g id="text_19">
      <!-- 2 -->
      <g transform="translate(21.6801 195.549695) scale(0.1728 -0.1728)">
       <use xlink:href="#DejaVuSans-32"/>
      </g>
     </g>
    </g>
    <g id="ytick_6">
     <g id="line2d_19">
      <g>
       <use xlink:href="#m70c8d4ccd8" x="39.6745" y="97.348282" style="stroke: #000000; stroke-width: 0.8"/>
      </g>
     </g>
     <g id="text_20">
      <!-- 4 -->
      <g transform="translate(21.6801 103.913332) scale(0.1728 -0.1728)">
       <use xlink:href="#DejaVuSans-34"/>
      </g>
     </g>
    </g>
   </g>
   <g id="patch_42">
    <path d="M 39.6745 580.7301 
L 39.6745 26.3301 
" style="fill: none; stroke: #000000; stroke-width: 0.8; stroke-linejoin: miter; stroke-linecap: square"/>
   </g>
   <g id="patch_43">
    <path d="M 532.027441 580.7301 
L 532.027441 26.3301 
" style="fill: none; stroke: #000000; stroke-width: 0.8; stroke-linejoin: miter; stroke-linecap: square"/>
   </g>
   <g id="patch_44">
    <path d="M 39.6745 580.7301 
L 532.027441 580.7301 
" style="fill: none; stroke: #000000; stroke-width: 0.8; stroke-linejoin: miter; stroke-linecap: square"/>
   </g>
   <g id="patch_45">
    <path d="M 39.6745 26.3301 
L 532.027441 26.3301 
" style="fill: none; stroke: #000000; stroke-width: 0.8; stroke-linejoin: miter; stroke-linecap: square"/>
   </g>
   <g id="text_21">
    <!-- FairMOT -->
    <g transform="translate(250.890021 20.3301) scale(0.1728 -0.1728)">
     <defs>
      <path id="DejaVuSans-46" d="M 628 4666 
L 3309 4666 
L 3309 4134 
L 1259 4134 
L 1259 2759 
L 3109 2759 
L 3109 2228 
L 1259 2228 
L 1259 0 
L 628 0 
L 628 4666 
z
" transform="scale(0.015625)"/>
      <path id="DejaVuSans-61" d="M 2194 1759 
Q 1497 1759 1228 1600 
Q 959 1441 959 1056 
Q 959 750 1161 570 
Q 1363 391 1709 391 
Q 2188 391 2477 730 
Q 2766 1069 2766 1631 
L 2766 1759 
L 2194 1759 
z
M 3341 1997 
L 3341 0 
L 2766 0 
L 2766 531 
Q 2569 213 2275 61 
Q 1981 -91 1556 -91 
Q 1019 -91 701 211 
Q 384 513 384 1019 
Q 384 1609 779 1909 
Q 1175 2209 1959 2209 
L 2766 2209 
L 2766 2266 
Q 2766 2663 2505 2880 
Q 2244 3097 1772 3097 
Q 1472 3097 1187 3025 
Q 903 2953 641 2809 
L 641 3341 
Q 956 3463 1253 3523 
Q 1550 3584 1831 3584 
Q 2591 3584 2966 3190 
Q 3341 2797 3341 1997 
z
" transform="scale(0.015625)"/>
      <path id="DejaVuSans-69" d="M 603 3500 
L 1178 3500 
L 1178 0 
L 603 0 
L 603 3500 
z
M 603 4863 
L 1178 4863 
L 1178 4134 
L 603 4134 
L 603 4863 
z
" transform="scale(0.015625)"/>
      <path id="DejaVuSans-72" d="M 2631 2963 
Q 2534 3019 2420 3045 
Q 2306 3072 2169 3072 
Q 1681 3072 1420 2755 
Q 1159 2438 1159 1844 
L 1159 0 
L 581 0 
L 581 3500 
L 1159 3500 
L 1159 2956 
Q 1341 3275 1631 3429 
Q 1922 3584 2338 3584 
Q 2397 3584 2469 3576 
Q 2541 3569 2628 3553 
L 2631 2963 
z
" transform="scale(0.015625)"/>
      <path id="DejaVuSans-4d" d="M 628 4666 
L 1569 4666 
L 2759 1491 
L 3956 4666 
L 4897 4666 
L 4897 0 
L 4281 0 
L 4281 4097 
L 3078 897 
L 2444 897 
L 1241 4097 
L 1241 0 
L 628 0 
L 628 4666 
z
" transform="scale(0.015625)"/>
      <path id="DejaVuSans-4f" d="M 2522 4238 
Q 1834 4238 1429 3725 
Q 1025 3213 1025 2328 
Q 1025 1447 1429 934 
Q 1834 422 2522 422 
Q 3209 422 3611 934 
Q 4013 1447 4013 2328 
Q 4013 3213 3611 3725 
Q 3209 4238 2522 4238 
z
M 2522 4750 
Q 3503 4750 4090 4092 
Q 4678 3434 4678 2328 
Q 4678 1225 4090 567 
Q 3503 -91 2522 -91 
Q 1538 -91 948 565 
Q 359 1222 359 2328 
Q 359 3434 948 4092 
Q 1538 4750 2522 4750 
z
" transform="scale(0.015625)"/>
      <path id="DejaVuSans-54" d="M -19 4666 
L 3928 4666 
L 3928 4134 
L 2272 4134 
L 2272 0 
L 1638 0 
L 1638 4134 
L -19 4134 
L -19 4666 
z
" transform="scale(0.015625)"/>
     </defs>
     <use xlink:href="#DejaVuSans-46"/>
     <use xlink:href="#DejaVuSans-61" x="48.394531"/>
     <use xlink:href="#DejaVuSans-69" x="109.673828"/>
     <use xlink:href="#DejaVuSans-72" x="137.457031"/>
     <use xlink:href="#DejaVuSans-4d" x="178.570312"/>
     <use xlink:href="#DejaVuSans-4f" x="264.849609"/>
     <use xlink:href="#DejaVuSans-54" x="343.560547"/>
    </g>
   </g>
   <g id="legend_1">
    <g id="patch_46">
     <path d="M 415.041841 132.4293 
L 519.931441 132.4293 
Q 523.387441 132.4293 523.387441 128.9733 
L 523.387441 38.4261 
Q 523.387441 34.9701 519.931441 34.9701 
L 415.041841 34.9701 
Q 411.585841 34.9701 411.585841 38.4261 
L 411.585841 128.9733 
Q 411.585841 132.4293 415.041841 132.4293 
z
" style="fill: #ffffff; opacity: 0.8; stroke: #cccccc; stroke-linejoin: miter"/>
    </g>
    <g id="patch_47">
     <path d="M 418.497841 60.4068 
L 453.057841 60.4068 
L 453.057841 48.3108 
L 418.497841 48.3108 
z
" style="fill: #ffa500"/>
    </g>
    <g id="text_22">
     <!-- $\hat{\mathsf{N}}_{red}$ -->
     <g transform="translate(466.881841 60.4068) scale(0.1728 -0.1728)">
      <defs>
       <path id="DejaVuSans-302" d="M -1831 5119 
L -1369 5119 
L -603 3944 
L -1038 3944 
L -1600 4709 
L -2163 3944 
L -2597 3944 
L -1831 5119 
z
M -1600 3584 
L -1600 3584 
z
" transform="scale(0.015625)"/>
       <path id="DejaVuSans-4e" d="M 628 4666 
L 1478 4666 
L 3547 763 
L 3547 4666 
L 4159 4666 
L 4159 0 
L 3309 0 
L 1241 3903 
L 1241 0 
L 628 0 
L 628 4666 
z
" transform="scale(0.015625)"/>
       <path id="DejaVuSans-Oblique-72" d="M 2853 2969 
Q 2766 3016 2653 3041 
Q 2541 3066 2413 3066 
Q 1953 3066 1609 2717 
Q 1266 2369 1153 1784 
L 800 0 
L 225 0 
L 909 3500 
L 1484 3500 
L 1375 2956 
Q 1603 3259 1920 3421 
Q 2238 3584 2597 3584 
Q 2691 3584 2781 3573 
Q 2872 3563 2963 3538 
L 2853 2969 
z
" transform="scale(0.015625)"/>
       <path id="DejaVuSans-Oblique-65" d="M 3078 2063 
Q 3088 2113 3092 2166 
Q 3097 2219 3097 2272 
Q 3097 2653 2873 2875 
Q 2650 3097 2266 3097 
Q 1838 3097 1509 2826 
Q 1181 2556 1013 2059 
L 3078 2063 
z
M 3578 1613 
L 903 1613 
Q 884 1494 878 1425 
Q 872 1356 872 1306 
Q 872 872 1139 634 
Q 1406 397 1894 397 
Q 2269 397 2603 481 
Q 2938 566 3225 728 
L 3116 159 
Q 2806 34 2476 -28 
Q 2147 -91 1806 -91 
Q 1078 -91 686 257 
Q 294 606 294 1247 
Q 294 1794 489 2264 
Q 684 2734 1063 3103 
Q 1306 3334 1642 3459 
Q 1978 3584 2356 3584 
Q 2950 3584 3301 3228 
Q 3653 2872 3653 2272 
Q 3653 2128 3634 1964 
Q 3616 1800 3578 1613 
z
" transform="scale(0.015625)"/>
       <path id="DejaVuSans-Oblique-64" d="M 2675 525 
Q 2444 222 2128 65 
Q 1813 -91 1428 -91 
Q 903 -91 598 267 
Q 294 625 294 1247 
Q 294 1766 478 2236 
Q 663 2706 1013 3078 
Q 1244 3325 1534 3454 
Q 1825 3584 2144 3584 
Q 2481 3584 2739 3421 
Q 2997 3259 3138 2956 
L 3513 4863 
L 4091 4863 
L 3144 0 
L 2566 0 
L 2675 525 
z
M 891 1350 
Q 891 897 1095 644 
Q 1300 391 1663 391 
Q 1931 391 2161 520 
Q 2391 650 2566 903 
Q 2750 1166 2856 1509 
Q 2963 1853 2963 2188 
Q 2963 2622 2758 2865 
Q 2553 3109 2194 3109 
Q 1922 3109 1687 2981 
Q 1453 2853 1288 2613 
Q 1106 2353 998 2009 
Q 891 1666 891 1350 
z
" transform="scale(0.015625)"/>
      </defs>
      <use xlink:href="#DejaVuSans-302" transform="translate(71.279297 30.015625)"/>
      <use xlink:href="#DejaVuSans-4e" transform="translate(0 0.609375)"/>
      <use xlink:href="#DejaVuSans-Oblique-72" transform="translate(75.761719 -15.796875) scale(0.7)"/>
      <use xlink:href="#DejaVuSans-Oblique-65" transform="translate(104.541016 -15.796875) scale(0.7)"/>
      <use xlink:href="#DejaVuSans-Oblique-64" transform="translate(147.607422 -15.796875) scale(0.7)"/>
     </g>
    </g>
    <g id="patch_48">
     <path d="M 418.497841 91.1652 
L 453.057841 91.1652 
L 453.057841 79.0692 
L 418.497841 79.0692 
z
" style="fill: #ff0000"/>
    </g>
    <g id="text_23">
     <!-- $\hat{\mathsf{N}}_{false}$ -->
     <g transform="translate(466.881841 91.1652) scale(0.1728 -0.1728)">
      <defs>
       <path id="DejaVuSans-Oblique-66" d="M 3059 4863 
L 2969 4384 
L 2419 4384 
Q 2106 4384 1964 4261 
Q 1822 4138 1753 3809 
L 1691 3500 
L 2638 3500 
L 2553 3053 
L 1606 3053 
L 1013 0 
L 434 0 
L 1031 3053 
L 481 3053 
L 563 3500 
L 1113 3500 
L 1159 3744 
Q 1278 4363 1576 4613 
Q 1875 4863 2516 4863 
L 3059 4863 
z
" transform="scale(0.015625)"/>
       <path id="DejaVuSans-Oblique-61" d="M 3438 1997 
L 3047 0 
L 2472 0 
L 2578 531 
Q 2325 219 2001 64 
Q 1678 -91 1281 -91 
Q 834 -91 548 182 
Q 263 456 263 884 
Q 263 1497 752 1853 
Q 1241 2209 2100 2209 
L 2900 2209 
L 2931 2363 
Q 2938 2388 2941 2417 
Q 2944 2447 2944 2509 
Q 2944 2788 2717 2942 
Q 2491 3097 2081 3097 
Q 1800 3097 1504 3025 
Q 1209 2953 897 2809 
L 997 3341 
Q 1322 3463 1633 3523 
Q 1944 3584 2234 3584 
Q 2853 3584 3176 3315 
Q 3500 3047 3500 2534 
Q 3500 2431 3484 2292 
Q 3469 2153 3438 1997 
z
M 2816 1759 
L 2241 1759 
Q 1534 1759 1195 1570 
Q 856 1381 856 984 
Q 856 709 1029 553 
Q 1203 397 1509 397 
Q 1978 397 2328 733 
Q 2678 1069 2791 1631 
L 2816 1759 
z
" transform="scale(0.015625)"/>
       <path id="DejaVuSans-Oblique-6c" d="M 1172 4863 
L 1747 4863 
L 800 0 
L 225 0 
L 1172 4863 
z
" transform="scale(0.015625)"/>
       <path id="DejaVuSans-Oblique-73" d="M 3200 3397 
L 3091 2853 
Q 2863 2978 2609 3040 
Q 2356 3103 2088 3103 
Q 1634 3103 1373 2948 
Q 1113 2794 1113 2528 
Q 1113 2219 1719 2053 
Q 1766 2041 1788 2034 
L 1972 1978 
Q 2547 1819 2739 1644 
Q 2931 1469 2931 1166 
Q 2931 609 2489 259 
Q 2047 -91 1331 -91 
Q 1053 -91 747 -37 
Q 441 16 72 128 
L 184 722 
Q 500 559 806 475 
Q 1113 391 1394 391 
Q 1816 391 2080 572 
Q 2344 753 2344 1031 
Q 2344 1331 1650 1516 
L 1591 1531 
L 1394 1581 
Q 956 1697 753 1886 
Q 550 2075 550 2369 
Q 550 2928 970 3256 
Q 1391 3584 2113 3584 
Q 2397 3584 2667 3537 
Q 2938 3491 3200 3397 
z
" transform="scale(0.015625)"/>
      </defs>
      <use xlink:href="#DejaVuSans-302" transform="translate(71.279297 30.015625)"/>
      <use xlink:href="#DejaVuSans-4e" transform="translate(0 0.609375)"/>
      <use xlink:href="#DejaVuSans-Oblique-66" transform="translate(75.761719 -15.796875) scale(0.7)"/>
      <use xlink:href="#DejaVuSans-Oblique-61" transform="translate(100.405273 -15.796875) scale(0.7)"/>
      <use xlink:href="#DejaVuSans-Oblique-6c" transform="translate(143.300781 -15.796875) scale(0.7)"/>
      <use xlink:href="#DejaVuSans-Oblique-73" transform="translate(162.749023 -15.796875) scale(0.7)"/>
      <use xlink:href="#DejaVuSans-Oblique-65" transform="translate(199.21875 -15.796875) scale(0.7)"/>
     </g>
    </g>
    <g id="patch_49">
     <path d="M 418.497841 121.9236 
L 453.057841 121.9236 
L 453.057841 109.8276 
L 418.497841 109.8276 
z
"/>
    </g>
    <g id="text_24">
     <!-- $-\hat{\mathsf{N}}_{mis}$ -->
     <g transform="translate(466.881841 121.9236) scale(0.1728 -0.1728)">
      <defs>
       <path id="DejaVuSans-Oblique-6d" d="M 5747 2113 
L 5338 0 
L 4763 0 
L 5166 2094 
Q 5191 2228 5203 2325 
Q 5216 2422 5216 2491 
Q 5216 2772 5059 2928 
Q 4903 3084 4622 3084 
Q 4203 3084 3875 2770 
Q 3547 2456 3450 1953 
L 3066 0 
L 2491 0 
L 2900 2094 
Q 2925 2209 2937 2307 
Q 2950 2406 2950 2484 
Q 2950 2769 2794 2926 
Q 2638 3084 2363 3084 
Q 1938 3084 1609 2770 
Q 1281 2456 1184 1953 
L 800 0 
L 225 0 
L 909 3500 
L 1484 3500 
L 1375 2956 
Q 1609 3263 1923 3423 
Q 2238 3584 2597 3584 
Q 2978 3584 3223 3384 
Q 3469 3184 3519 2828 
Q 3781 3197 4126 3390 
Q 4472 3584 4856 3584 
Q 5306 3584 5551 3325 
Q 5797 3066 5797 2591 
Q 5797 2488 5784 2364 
Q 5772 2241 5747 2113 
z
" transform="scale(0.015625)"/>
       <path id="DejaVuSans-Oblique-69" d="M 1172 4863 
L 1747 4863 
L 1606 4134 
L 1031 4134 
L 1172 4863 
z
M 909 3500 
L 1484 3500 
L 800 0 
L 225 0 
L 909 3500 
z
" transform="scale(0.015625)"/>
      </defs>
      <use xlink:href="#DejaVuSans-2212" transform="translate(0 0.609375)"/>
      <use xlink:href="#DejaVuSans-302" transform="translate(155.068359 30.015625)"/>
      <use xlink:href="#DejaVuSans-4e" transform="translate(83.789062 0.609375)"/>
      <use xlink:href="#DejaVuSans-Oblique-6d" transform="translate(159.550781 -15.796875) scale(0.7)"/>
      <use xlink:href="#DejaVuSans-Oblique-69" transform="translate(227.739258 -15.796875) scale(0.7)"/>
      <use xlink:href="#DejaVuSans-Oblique-73" transform="translate(247.1875 -15.796875) scale(0.7)"/>
     </g>
    </g>
   </g>
  </g>
  <g id="axes_2">
   <g id="patch_50">
    <path d="M 630.498029 580.7301 
L 1122.850971 580.7301 
L 1122.850971 26.3301 
L 630.498029 26.3301 
z
" style="fill: #ffffff"/>
   </g>
   <g id="patch_51">
    <path d="M 639.966355 280.621009 
L 658.903007 280.621009 
L 658.903007 188.984645 
L 639.966355 188.984645 
z
" clip-path="url(#pad4be2aba6)" style="fill: #ffa500"/>
   </g>
   <g id="patch_52">
    <path d="M 677.839658 280.621009 
L 696.77631 280.621009 
L 696.77631 280.621009 
L 677.839658 280.621009 
z
" clip-path="url(#pad4be2aba6)" style="fill: #ffa500"/>
   </g>
   <g id="patch_53">
    <path d="M 715.712962 280.621009 
L 734.649613 280.621009 
L 734.649613 234.802827 
L 715.712962 234.802827 
z
" clip-path="url(#pad4be2aba6)" style="fill: #ffa500"/>
   </g>
   <g id="patch_54">
    <path d="M 753.586265 280.621009 
L 772.522916 280.621009 
L 772.522916 280.621009 
L 753.586265 280.621009 
z
" clip-path="url(#pad4be2aba6)" style="fill: #ffa500"/>
   </g>
   <g id="patch_55">
    <path d="M 791.459568 280.621009 
L 810.396219 280.621009 
L 810.396219 234.802827 
L 791.459568 234.802827 
z
" clip-path="url(#pad4be2aba6)" style="fill: #ffa500"/>
   </g>
   <g id="patch_56">
    <path d="M 829.332871 280.621009 
L 848.269523 280.621009 
L 848.269523 280.621009 
L 829.332871 280.621009 
z
" clip-path="url(#pad4be2aba6)" style="fill: #ffa500"/>
   </g>
   <g id="patch_57">
    <path d="M 867.206174 280.621009 
L 886.142826 280.621009 
L 886.142826 280.621009 
L 867.206174 280.621009 
z
" clip-path="url(#pad4be2aba6)" style="fill: #ffa500"/>
   </g>
   <g id="patch_58">
    <path d="M 905.079477 280.621009 
L 924.016129 280.621009 
L 924.016129 188.984645 
L 905.079477 188.984645 
z
" clip-path="url(#pad4be2aba6)" style="fill: #ffa500"/>
   </g>
   <g id="patch_59">
    <path d="M 942.952781 280.621009 
L 961.889432 280.621009 
L 961.889432 280.621009 
L 942.952781 280.621009 
z
" clip-path="url(#pad4be2aba6)" style="fill: #ffa500"/>
   </g>
   <g id="patch_60">
    <path d="M 980.826084 280.621009 
L 999.762735 280.621009 
L 999.762735 280.621009 
L 980.826084 280.621009 
z
" clip-path="url(#pad4be2aba6)" style="fill: #ffa500"/>
   </g>
   <g id="patch_61">
    <path d="M 1018.699387 280.621009 
L 1037.636038 280.621009 
L 1037.636038 280.621009 
L 1018.699387 280.621009 
z
" clip-path="url(#pad4be2aba6)" style="fill: #ffa500"/>
   </g>
   <g id="patch_62">
    <path d="M 1056.57269 280.621009 
L 1075.509342 280.621009 
L 1075.509342 280.621009 
L 1056.57269 280.621009 
z
" clip-path="url(#pad4be2aba6)" style="fill: #ffa500"/>
   </g>
   <g id="patch_63">
    <path d="M 1094.445993 280.621009 
L 1113.382645 280.621009 
L 1113.382645 280.621009 
L 1094.445993 280.621009 
z
" clip-path="url(#pad4be2aba6)" style="fill: #ffa500"/>
   </g>
   <g id="patch_64">
    <path d="M 639.966355 280.621009 
L 658.903007 280.621009 
L 658.903007 280.621009 
L 639.966355 280.621009 
z
" clip-path="url(#pad4be2aba6)" style="fill: #ff0000"/>
   </g>
   <g id="patch_65">
    <path d="M 677.839658 280.621009 
L 696.77631 280.621009 
L 696.77631 280.621009 
L 677.839658 280.621009 
z
" clip-path="url(#pad4be2aba6)" style="fill: #ff0000"/>
   </g>
   <g id="patch_66">
    <path d="M 715.712962 234.802827 
L 734.649613 234.802827 
L 734.649613 51.5301 
L 715.712962 51.5301 
z
" clip-path="url(#pad4be2aba6)" style="fill: #ff0000"/>
   </g>
   <g id="patch_67">
    <path d="M 753.586265 280.621009 
L 772.522916 280.621009 
L 772.522916 280.621009 
L 753.586265 280.621009 
z
" clip-path="url(#pad4be2aba6)" style="fill: #ff0000"/>
   </g>
   <g id="patch_68">
    <path d="M 791.459568 234.802827 
L 810.396219 234.802827 
L 810.396219 188.984645 
L 791.459568 188.984645 
z
" clip-path="url(#pad4be2aba6)" style="fill: #ff0000"/>
   </g>
   <g id="patch_69">
    <path d="M 829.332871 280.621009 
L 848.269523 280.621009 
L 848.269523 188.984645 
L 829.332871 188.984645 
z
" clip-path="url(#pad4be2aba6)" style="fill: #ff0000"/>
   </g>
   <g id="patch_70">
    <path d="M 867.206174 280.621009 
L 886.142826 280.621009 
L 886.142826 234.802827 
L 867.206174 234.802827 
z
" clip-path="url(#pad4be2aba6)" style="fill: #ff0000"/>
   </g>
   <g id="patch_71">
    <path d="M 905.079477 280.621009 
L 924.016129 280.621009 
L 924.016129 280.621009 
L 905.079477 280.621009 
z
" clip-path="url(#pad4be2aba6)" style="fill: #ff0000"/>
   </g>
   <g id="patch_72">
    <path d="M 942.952781 280.621009 
L 961.889432 280.621009 
L 961.889432 280.621009 
L 942.952781 280.621009 
z
" clip-path="url(#pad4be2aba6)" style="fill: #ff0000"/>
   </g>
   <g id="patch_73">
    <path d="M 980.826084 280.621009 
L 999.762735 280.621009 
L 999.762735 280.621009 
L 980.826084 280.621009 
z
" clip-path="url(#pad4be2aba6)" style="fill: #ff0000"/>
   </g>
   <g id="patch_74">
    <path d="M 1018.699387 280.621009 
L 1037.636038 280.621009 
L 1037.636038 280.621009 
L 1018.699387 280.621009 
z
" clip-path="url(#pad4be2aba6)" style="fill: #ff0000"/>
   </g>
   <g id="patch_75">
    <path d="M 1056.57269 280.621009 
L 1075.509342 280.621009 
L 1075.509342 188.984645 
L 1056.57269 188.984645 
z
" clip-path="url(#pad4be2aba6)" style="fill: #ff0000"/>
   </g>
   <g id="patch_76">
    <path d="M 1094.445993 280.621009 
L 1113.382645 280.621009 
L 1113.382645 234.802827 
L 1094.445993 234.802827 
z
" clip-path="url(#pad4be2aba6)" style="fill: #ff0000"/>
   </g>
   <g id="patch_77">
    <path d="M 639.966355 280.621009 
L 658.903007 280.621009 
L 658.903007 326.439191 
L 639.966355 326.439191 
z
" clip-path="url(#pad4be2aba6)"/>
   </g>
   <g id="patch_78">
    <path d="M 677.839658 280.621009 
L 696.77631 280.621009 
L 696.77631 509.711918 
L 677.839658 509.711918 
z
" clip-path="url(#pad4be2aba6)"/>
   </g>
   <g id="patch_79">
    <path d="M 715.712962 280.621009 
L 734.649613 280.621009 
L 734.649613 372.257373 
L 715.712962 372.257373 
z
" clip-path="url(#pad4be2aba6)"/>
   </g>
   <g id="patch_80">
    <path d="M 753.586265 280.621009 
L 772.522916 280.621009 
L 772.522916 418.075555 
L 753.586265 418.075555 
z
" clip-path="url(#pad4be2aba6)"/>
   </g>
   <g id="patch_81">
    <path d="M 791.459568 280.621009 
L 810.396219 280.621009 
L 810.396219 372.257373 
L 791.459568 372.257373 
z
" clip-path="url(#pad4be2aba6)"/>
   </g>
   <g id="patch_82">
    <path d="M 829.332871 280.621009 
L 848.269523 280.621009 
L 848.269523 463.893736 
L 829.332871 463.893736 
z
" clip-path="url(#pad4be2aba6)"/>
   </g>
   <g id="patch_83">
    <path d="M 867.206174 280.621009 
L 886.142826 280.621009 
L 886.142826 326.439191 
L 867.206174 326.439191 
z
" clip-path="url(#pad4be2aba6)"/>
   </g>
   <g id="patch_84">
    <path d="M 905.079477 280.621009 
L 924.016129 280.621009 
L 924.016129 326.439191 
L 905.079477 326.439191 
z
" clip-path="url(#pad4be2aba6)"/>
   </g>
   <g id="patch_85">
    <path d="M 942.952781 280.621009 
L 961.889432 280.621009 
L 961.889432 555.5301 
L 942.952781 555.5301 
z
" clip-path="url(#pad4be2aba6)"/>
   </g>
   <g id="patch_86">
    <path d="M 980.826084 280.621009 
L 999.762735 280.621009 
L 999.762735 372.257373 
L 980.826084 372.257373 
z
" clip-path="url(#pad4be2aba6)"/>
   </g>
   <g id="patch_87">
    <path d="M 1018.699387 280.621009 
L 1037.636038 280.621009 
L 1037.636038 280.621009 
L 1018.699387 280.621009 
z
" clip-path="url(#pad4be2aba6)"/>
   </g>
   <g id="patch_88">
    <path d="M 1056.57269 280.621009 
L 1075.509342 280.621009 
L 1075.509342 372.257373 
L 1056.57269 372.257373 
z
" clip-path="url(#pad4be2aba6)"/>
   </g>
   <g id="patch_89">
    <path d="M 1094.445993 280.621009 
L 1113.382645 280.621009 
L 1113.382645 372.257373 
L 1094.445993 372.257373 
z
" clip-path="url(#pad4be2aba6)"/>
   </g>
   <g id="matplotlib.axis_3">
    <g id="xtick_14">
     <g id="line2d_20">
      <g>
       <use xlink:href="#m38eedd3d48" x="649.434681" y="580.7301" style="stroke: #000000; stroke-width: 0.8"/>
      </g>
     </g>
     <g id="text_25">
      <!-- 0 -->
      <g transform="translate(654.202881 598.7245) rotate(-90) scale(0.1728 -0.1728)">
       <use xlink:href="#DejaVuSans-30"/>
      </g>
     </g>
    </g>
    <g id="xtick_15">
     <g id="line2d_21">
      <g>
       <use xlink:href="#m38eedd3d48" x="687.307984" y="580.7301" style="stroke: #000000; stroke-width: 0.8"/>
      </g>
     </g>
     <g id="text_26">
      <!-- 1 -->
      <g transform="translate(692.076184 598.7245) rotate(-90) scale(0.1728 -0.1728)">
       <use xlink:href="#DejaVuSans-31"/>
      </g>
     </g>
    </g>
    <g id="xtick_16">
     <g id="line2d_22">
      <g>
       <use xlink:href="#m38eedd3d48" x="725.181287" y="580.7301" style="stroke: #000000; stroke-width: 0.8"/>
      </g>
     </g>
     <g id="text_27">
      <!-- 2 -->
      <g transform="translate(729.949487 598.7245) rotate(-90) scale(0.1728 -0.1728)">
       <use xlink:href="#DejaVuSans-32"/>
      </g>
     </g>
    </g>
    <g id="xtick_17">
     <g id="line2d_23">
      <g>
       <use xlink:href="#m38eedd3d48" x="763.05459" y="580.7301" style="stroke: #000000; stroke-width: 0.8"/>
      </g>
     </g>
     <g id="text_28">
      <!-- 3 -->
      <g transform="translate(767.82279 598.7245) rotate(-90) scale(0.1728 -0.1728)">
       <use xlink:href="#DejaVuSans-33"/>
      </g>
     </g>
    </g>
    <g id="xtick_18">
     <g id="line2d_24">
      <g>
       <use xlink:href="#m38eedd3d48" x="800.927894" y="580.7301" style="stroke: #000000; stroke-width: 0.8"/>
      </g>
     </g>
     <g id="text_29">
      <!-- 4 -->
      <g transform="translate(805.696094 598.7245) rotate(-90) scale(0.1728 -0.1728)">
       <use xlink:href="#DejaVuSans-34"/>
      </g>
     </g>
    </g>
    <g id="xtick_19">
     <g id="line2d_25">
      <g>
       <use xlink:href="#m38eedd3d48" x="838.801197" y="580.7301" style="stroke: #000000; stroke-width: 0.8"/>
      </g>
     </g>
     <g id="text_30">
      <!-- 5 -->
      <g transform="translate(843.569397 598.7245) rotate(-90) scale(0.1728 -0.1728)">
       <use xlink:href="#DejaVuSans-35"/>
      </g>
     </g>
    </g>
    <g id="xtick_20">
     <g id="line2d_26">
      <g>
       <use xlink:href="#m38eedd3d48" x="876.6745" y="580.7301" style="stroke: #000000; stroke-width: 0.8"/>
      </g>
     </g>
     <g id="text_31">
      <!-- 6 -->
      <g transform="translate(881.4427 598.7245) rotate(-90) scale(0.1728 -0.1728)">
       <use xlink:href="#DejaVuSans-36"/>
      </g>
     </g>
    </g>
    <g id="xtick_21">
     <g id="line2d_27">
      <g>
       <use xlink:href="#m38eedd3d48" x="914.547803" y="580.7301" style="stroke: #000000; stroke-width: 0.8"/>
      </g>
     </g>
     <g id="text_32">
      <!-- 7 -->
      <g transform="translate(919.316003 598.7245) rotate(-90) scale(0.1728 -0.1728)">
       <use xlink:href="#DejaVuSans-37"/>
      </g>
     </g>
    </g>
    <g id="xtick_22">
     <g id="line2d_28">
      <g>
       <use xlink:href="#m38eedd3d48" x="952.421106" y="580.7301" style="stroke: #000000; stroke-width: 0.8"/>
      </g>
     </g>
     <g id="text_33">
      <!-- 8 -->
      <g transform="translate(957.189306 598.7245) rotate(-90) scale(0.1728 -0.1728)">
       <use xlink:href="#DejaVuSans-38"/>
      </g>
     </g>
    </g>
    <g id="xtick_23">
     <g id="line2d_29">
      <g>
       <use xlink:href="#m38eedd3d48" x="990.29441" y="580.7301" style="stroke: #000000; stroke-width: 0.8"/>
      </g>
     </g>
     <g id="text_34">
      <!-- 9 -->
      <g transform="translate(995.06261 598.7245) rotate(-90) scale(0.1728 -0.1728)">
       <use xlink:href="#DejaVuSans-39"/>
      </g>
     </g>
    </g>
    <g id="xtick_24">
     <g id="line2d_30">
      <g>
       <use xlink:href="#m38eedd3d48" x="1028.167713" y="580.7301" style="stroke: #000000; stroke-width: 0.8"/>
      </g>
     </g>
     <g id="text_35">
      <!-- 10 -->
      <g transform="translate(1032.935913 609.7189) rotate(-90) scale(0.1728 -0.1728)">
       <use xlink:href="#DejaVuSans-31"/>
       <use xlink:href="#DejaVuSans-30" x="63.623047"/>
      </g>
     </g>
    </g>
    <g id="xtick_25">
     <g id="line2d_31">
      <g>
       <use xlink:href="#m38eedd3d48" x="1066.041016" y="580.7301" style="stroke: #000000; stroke-width: 0.8"/>
      </g>
     </g>
     <g id="text_36">
      <!-- 11 -->
      <g transform="translate(1070.809216 609.7189) rotate(-90) scale(0.1728 -0.1728)">
       <use xlink:href="#DejaVuSans-31"/>
       <use xlink:href="#DejaVuSans-31" x="63.623047"/>
      </g>
     </g>
    </g>
    <g id="xtick_26">
     <g id="line2d_32">
      <g>
       <use xlink:href="#m38eedd3d48" x="1103.914319" y="580.7301" style="stroke: #000000; stroke-width: 0.8"/>
      </g>
     </g>
     <g id="text_37">
      <!-- 12 -->
      <g transform="translate(1108.682519 609.7189) rotate(-90) scale(0.1728 -0.1728)">
       <use xlink:href="#DejaVuSans-31"/>
       <use xlink:href="#DejaVuSans-32" x="63.623047"/>
      </g>
     </g>
    </g>
    <g id="text_38">
     <!-- Sequence nb -->
     <g transform="translate(820.3471 626.849) scale(0.1728 -0.1728)">
      <use xlink:href="#DejaVuSans-53"/>
      <use xlink:href="#DejaVuSans-65" x="63.476562"/>
      <use xlink:href="#DejaVuSans-71" x="125"/>
      <use xlink:href="#DejaVuSans-75" x="188.476562"/>
      <use xlink:href="#DejaVuSans-65" x="251.855469"/>
      <use xlink:href="#DejaVuSans-6e" x="313.378906"/>
      <use xlink:href="#DejaVuSans-63" x="376.757812"/>
      <use xlink:href="#DejaVuSans-65" x="431.738281"/>
      <use xlink:href="#DejaVuSans-20" x="493.261719"/>
      <use xlink:href="#DejaVuSans-6e" x="525.048828"/>
      <use xlink:href="#DejaVuSans-62" x="588.427734"/>
     </g>
    </g>
   </g>
   <g id="matplotlib.axis_4">
    <g id="ytick_7">
     <g id="line2d_33">
      <g>
       <use xlink:href="#m70c8d4ccd8" x="630.498029" y="555.5301" style="stroke: #000000; stroke-width: 0.8"/>
      </g>
     </g>
    </g>
    <g id="ytick_8">
     <g id="line2d_34">
      <g>
       <use xlink:href="#m70c8d4ccd8" x="630.498029" y="463.893736" style="stroke: #000000; stroke-width: 0.8"/>
      </g>
     </g>
    </g>
    <g id="ytick_9">
     <g id="line2d_35">
      <g>
       <use xlink:href="#m70c8d4ccd8" x="630.498029" y="372.257373" style="stroke: #000000; stroke-width: 0.8"/>
      </g>
     </g>
    </g>
    <g id="ytick_10">
     <g id="line2d_36">
      <g>
       <use xlink:href="#m70c8d4ccd8" x="630.498029" y="280.621009" style="stroke: #000000; stroke-width: 0.8"/>
      </g>
     </g>
    </g>
    <g id="ytick_11">
     <g id="line2d_37">
      <g>
       <use xlink:href="#m70c8d4ccd8" x="630.498029" y="188.984645" style="stroke: #000000; stroke-width: 0.8"/>
      </g>
     </g>
    </g>
    <g id="ytick_12">
     <g id="line2d_38">
      <g>
       <use xlink:href="#m70c8d4ccd8" x="630.498029" y="97.348282" style="stroke: #000000; stroke-width: 0.8"/>
      </g>
     </g>
    </g>
   </g>
   <g id="patch_90">
    <path d="M 630.498029 580.7301 
L 630.498029 26.3301 
" style="fill: none; stroke: #000000; stroke-width: 0.8; stroke-linejoin: miter; stroke-linecap: square"/>
   </g>
   <g id="patch_91">
    <path d="M 1122.850971 580.7301 
L 1122.850971 26.3301 
" style="fill: none; stroke: #000000; stroke-width: 0.8; stroke-linejoin: miter; stroke-linecap: square"/>
   </g>
   <g id="patch_92">
    <path d="M 630.498029 580.7301 
L 1122.850971 580.7301 
" style="fill: none; stroke: #000000; stroke-width: 0.8; stroke-linejoin: miter; stroke-linecap: square"/>
   </g>
   <g id="patch_93">
    <path d="M 630.498029 26.3301 
L 1122.850971 26.3301 
" style="fill: none; stroke: #000000; stroke-width: 0.8; stroke-linejoin: miter; stroke-linecap: square"/>
   </g>
   <g id="text_39">
    <!-- SORT -->
    <g transform="translate(853.73395 20.3301) scale(0.1728 -0.1728)">
     <defs>
      <path id="DejaVuSans-52" d="M 2841 2188 
Q 3044 2119 3236 1894 
Q 3428 1669 3622 1275 
L 4263 0 
L 3584 0 
L 2988 1197 
Q 2756 1666 2539 1819 
Q 2322 1972 1947 1972 
L 1259 1972 
L 1259 0 
L 628 0 
L 628 4666 
L 2053 4666 
Q 2853 4666 3247 4331 
Q 3641 3997 3641 3322 
Q 3641 2881 3436 2590 
Q 3231 2300 2841 2188 
z
M 1259 4147 
L 1259 2491 
L 2053 2491 
Q 2509 2491 2742 2702 
Q 2975 2913 2975 3322 
Q 2975 3731 2742 3939 
Q 2509 4147 2053 4147 
L 1259 4147 
z
" transform="scale(0.015625)"/>
     </defs>
     <use xlink:href="#DejaVuSans-53"/>
     <use xlink:href="#DejaVuSans-4f" x="63.476562"/>
     <use xlink:href="#DejaVuSans-52" x="142.1875"/>
     <use xlink:href="#DejaVuSans-54" x="204.419922"/>
    </g>
   </g>
   <g id="legend_2">
    <g id="patch_94">
     <path d="M 1005.865371 132.4293 
L 1110.754971 132.4293 
Q 1114.210971 132.4293 1114.210971 128.9733 
L 1114.210971 38.4261 
Q 1114.210971 34.9701 1110.754971 34.9701 
L 1005.865371 34.9701 
Q 1002.409371 34.9701 1002.409371 38.4261 
L 1002.409371 128.9733 
Q 1002.409371 132.4293 1005.865371 132.4293 
z
" style="fill: #ffffff; opacity: 0.8; stroke: #cccccc; stroke-linejoin: miter"/>
    </g>
    <g id="patch_95">
     <path d="M 1009.321371 60.4068 
L 1043.881371 60.4068 
L 1043.881371 48.3108 
L 1009.321371 48.3108 
z
" style="fill: #ffa500"/>
    </g>
    <g id="text_40">
     <!-- $\hat{\mathsf{N}}_{red}$ -->
     <g transform="translate(1057.705371 60.4068) scale(0.1728 -0.1728)">
      <use xlink:href="#DejaVuSans-302" transform="translate(71.279297 30.015625)"/>
      <use xlink:href="#DejaVuSans-4e" transform="translate(0 0.609375)"/>
      <use xlink:href="#DejaVuSans-Oblique-72" transform="translate(75.761719 -15.796875) scale(0.7)"/>
      <use xlink:href="#DejaVuSans-Oblique-65" transform="translate(104.541016 -15.796875) scale(0.7)"/>
      <use xlink:href="#DejaVuSans-Oblique-64" transform="translate(147.607422 -15.796875) scale(0.7)"/>
     </g>
    </g>
    <g id="patch_96">
     <path d="M 1009.321371 91.1652 
L 1043.881371 91.1652 
L 1043.881371 79.0692 
L 1009.321371 79.0692 
z
" style="fill: #ff0000"/>
    </g>
    <g id="text_41">
     <!-- $\hat{\mathsf{N}}_{false}$ -->
     <g transform="translate(1057.705371 91.1652) scale(0.1728 -0.1728)">
      <use xlink:href="#DejaVuSans-302" transform="translate(71.279297 30.015625)"/>
      <use xlink:href="#DejaVuSans-4e" transform="translate(0 0.609375)"/>
      <use xlink:href="#DejaVuSans-Oblique-66" transform="translate(75.761719 -15.796875) scale(0.7)"/>
      <use xlink:href="#DejaVuSans-Oblique-61" transform="translate(100.405273 -15.796875) scale(0.7)"/>
      <use xlink:href="#DejaVuSans-Oblique-6c" transform="translate(143.300781 -15.796875) scale(0.7)"/>
      <use xlink:href="#DejaVuSans-Oblique-73" transform="translate(162.749023 -15.796875) scale(0.7)"/>
      <use xlink:href="#DejaVuSans-Oblique-65" transform="translate(199.21875 -15.796875) scale(0.7)"/>
     </g>
    </g>
    <g id="patch_97">
     <path d="M 1009.321371 121.9236 
L 1043.881371 121.9236 
L 1043.881371 109.8276 
L 1009.321371 109.8276 
z
"/>
    </g>
    <g id="text_42">
     <!-- $-\hat{\mathsf{N}}_{mis}$ -->
     <g transform="translate(1057.705371 121.9236) scale(0.1728 -0.1728)">
      <use xlink:href="#DejaVuSans-2212" transform="translate(0 0.609375)"/>
      <use xlink:href="#DejaVuSans-302" transform="translate(155.068359 30.015625)"/>
      <use xlink:href="#DejaVuSans-4e" transform="translate(83.789062 0.609375)"/>
      <use xlink:href="#DejaVuSans-Oblique-6d" transform="translate(159.550781 -15.796875) scale(0.7)"/>
      <use xlink:href="#DejaVuSans-Oblique-69" transform="translate(227.739258 -15.796875) scale(0.7)"/>
      <use xlink:href="#DejaVuSans-Oblique-73" transform="translate(247.1875 -15.796875) scale(0.7)"/>
     </g>
    </g>
   </g>
  </g>
  <g id="axes_3">
   <g id="patch_98">
    <path d="M 1221.321559 580.7301 
L 1713.6745 580.7301 
L 1713.6745 26.3301 
L 1221.321559 26.3301 
z
" style="fill: #ffffff"/>
   </g>
   <g id="patch_99">
    <path d="M 1230.789885 280.621009 
L 1249.726536 280.621009 
L 1249.726536 280.621009 
L 1230.789885 280.621009 
z
" clip-path="url(#p5c4a84dc1d)" style="fill: #ffa500"/>
   </g>
   <g id="patch_100">
    <path d="M 1268.663188 280.621009 
L 1287.599839 280.621009 
L 1287.599839 280.621009 
L 1268.663188 280.621009 
z
" clip-path="url(#p5c4a84dc1d)" style="fill: #ffa500"/>
   </g>
   <g id="patch_101">
    <path d="M 1306.536491 280.621009 
L 1325.473143 280.621009 
L 1325.473143 280.621009 
L 1306.536491 280.621009 
z
" clip-path="url(#p5c4a84dc1d)" style="fill: #ffa500"/>
   </g>
   <g id="patch_102">
    <path d="M 1344.409794 280.621009 
L 1363.346446 280.621009 
L 1363.346446 280.621009 
L 1344.409794 280.621009 
z
" clip-path="url(#p5c4a84dc1d)" style="fill: #ffa500"/>
   </g>
   <g id="patch_103">
    <path d="M 1382.283097 280.621009 
L 1401.219749 280.621009 
L 1401.219749 280.621009 
L 1382.283097 280.621009 
z
" clip-path="url(#p5c4a84dc1d)" style="fill: #ffa500"/>
   </g>
   <g id="patch_104">
    <path d="M 1420.1564 280.621009 
L 1439.093052 280.621009 
L 1439.093052 280.621009 
L 1420.1564 280.621009 
z
" clip-path="url(#p5c4a84dc1d)" style="fill: #ffa500"/>
   </g>
   <g id="patch_105">
    <path d="M 1458.029704 280.621009 
L 1476.966355 280.621009 
L 1476.966355 280.621009 
L 1458.029704 280.621009 
z
" clip-path="url(#p5c4a84dc1d)" style="fill: #ffa500"/>
   </g>
   <g id="patch_106">
    <path d="M 1495.903007 280.621009 
L 1514.839658 280.621009 
L 1514.839658 280.621009 
L 1495.903007 280.621009 
z
" clip-path="url(#p5c4a84dc1d)" style="fill: #ffa500"/>
   </g>
   <g id="patch_107">
    <path d="M 1533.77631 280.621009 
L 1552.712962 280.621009 
L 1552.712962 280.621009 
L 1533.77631 280.621009 
z
" clip-path="url(#p5c4a84dc1d)" style="fill: #ffa500"/>
   </g>
   <g id="patch_108">
    <path d="M 1571.649613 280.621009 
L 1590.586265 280.621009 
L 1590.586265 280.621009 
L 1571.649613 280.621009 
z
" clip-path="url(#p5c4a84dc1d)" style="fill: #ffa500"/>
   </g>
   <g id="patch_109">
    <path d="M 1609.522916 280.621009 
L 1628.459568 280.621009 
L 1628.459568 280.621009 
L 1609.522916 280.621009 
z
" clip-path="url(#p5c4a84dc1d)" style="fill: #ffa500"/>
   </g>
   <g id="patch_110">
    <path d="M 1647.396219 280.621009 
L 1666.332871 280.621009 
L 1666.332871 280.621009 
L 1647.396219 280.621009 
z
" clip-path="url(#p5c4a84dc1d)" style="fill: #ffa500"/>
   </g>
   <g id="patch_111">
    <path d="M 1685.269523 280.621009 
L 1704.206174 280.621009 
L 1704.206174 280.621009 
L 1685.269523 280.621009 
z
" clip-path="url(#p5c4a84dc1d)" style="fill: #ffa500"/>
   </g>
   <g id="patch_112">
    <path d="M 1230.789885 280.621009 
L 1249.726536 280.621009 
L 1249.726536 280.621009 
L 1230.789885 280.621009 
z
" clip-path="url(#p5c4a84dc1d)" style="fill: #ff0000"/>
   </g>
   <g id="patch_113">
    <path d="M 1268.663188 280.621009 
L 1287.599839 280.621009 
L 1287.599839 280.621009 
L 1268.663188 280.621009 
z
" clip-path="url(#p5c4a84dc1d)" style="fill: #ff0000"/>
   </g>
   <g id="patch_114">
    <path d="M 1306.536491 280.621009 
L 1325.473143 280.621009 
L 1325.473143 97.348282 
L 1306.536491 97.348282 
z
" clip-path="url(#p5c4a84dc1d)" style="fill: #ff0000"/>
   </g>
   <g id="patch_115">
    <path d="M 1344.409794 280.621009 
L 1363.346446 280.621009 
L 1363.346446 234.802827 
L 1344.409794 234.802827 
z
" clip-path="url(#p5c4a84dc1d)" style="fill: #ff0000"/>
   </g>
   <g id="patch_116">
    <path d="M 1382.283097 280.621009 
L 1401.219749 280.621009 
L 1401.219749 234.802827 
L 1382.283097 234.802827 
z
" clip-path="url(#p5c4a84dc1d)" style="fill: #ff0000"/>
   </g>
   <g id="patch_117">
    <path d="M 1420.1564 280.621009 
L 1439.093052 280.621009 
L 1439.093052 188.984645 
L 1420.1564 188.984645 
z
" clip-path="url(#p5c4a84dc1d)" style="fill: #ff0000"/>
   </g>
   <g id="patch_118">
    <path d="M 1458.029704 280.621009 
L 1476.966355 280.621009 
L 1476.966355 234.802827 
L 1458.029704 234.802827 
z
" clip-path="url(#p5c4a84dc1d)" style="fill: #ff0000"/>
   </g>
   <g id="patch_119">
    <path d="M 1495.903007 280.621009 
L 1514.839658 280.621009 
L 1514.839658 280.621009 
L 1495.903007 280.621009 
z
" clip-path="url(#p5c4a84dc1d)" style="fill: #ff0000"/>
   </g>
   <g id="patch_120">
    <path d="M 1533.77631 280.621009 
L 1552.712962 280.621009 
L 1552.712962 280.621009 
L 1533.77631 280.621009 
z
" clip-path="url(#p5c4a84dc1d)" style="fill: #ff0000"/>
   </g>
   <g id="patch_121">
    <path d="M 1571.649613 280.621009 
L 1590.586265 280.621009 
L 1590.586265 280.621009 
L 1571.649613 280.621009 
z
" clip-path="url(#p5c4a84dc1d)" style="fill: #ff0000"/>
   </g>
   <g id="patch_122">
    <path d="M 1609.522916 280.621009 
L 1628.459568 280.621009 
L 1628.459568 280.621009 
L 1609.522916 280.621009 
z
" clip-path="url(#p5c4a84dc1d)" style="fill: #ff0000"/>
   </g>
   <g id="patch_123">
    <path d="M 1647.396219 280.621009 
L 1666.332871 280.621009 
L 1666.332871 234.802827 
L 1647.396219 234.802827 
z
" clip-path="url(#p5c4a84dc1d)" style="fill: #ff0000"/>
   </g>
   <g id="patch_124">
    <path d="M 1685.269523 280.621009 
L 1704.206174 280.621009 
L 1704.206174 234.802827 
L 1685.269523 234.802827 
z
" clip-path="url(#p5c4a84dc1d)" style="fill: #ff0000"/>
   </g>
   <g id="patch_125">
    <path d="M 1230.789885 280.621009 
L 1249.726536 280.621009 
L 1249.726536 280.621009 
L 1230.789885 280.621009 
z
" clip-path="url(#p5c4a84dc1d)"/>
   </g>
   <g id="patch_126">
    <path d="M 1268.663188 280.621009 
L 1287.599839 280.621009 
L 1287.599839 463.893736 
L 1268.663188 463.893736 
z
" clip-path="url(#p5c4a84dc1d)"/>
   </g>
   <g id="patch_127">
    <path d="M 1306.536491 280.621009 
L 1325.473143 280.621009 
L 1325.473143 372.257373 
L 1306.536491 372.257373 
z
" clip-path="url(#p5c4a84dc1d)"/>
   </g>
   <g id="patch_128">
    <path d="M 1344.409794 280.621009 
L 1363.346446 280.621009 
L 1363.346446 418.075555 
L 1344.409794 418.075555 
z
" clip-path="url(#p5c4a84dc1d)"/>
   </g>
   <g id="patch_129">
    <path d="M 1382.283097 280.621009 
L 1401.219749 280.621009 
L 1401.219749 372.257373 
L 1382.283097 372.257373 
z
" clip-path="url(#p5c4a84dc1d)"/>
   </g>
   <g id="patch_130">
    <path d="M 1420.1564 280.621009 
L 1439.093052 280.621009 
L 1439.093052 463.893736 
L 1420.1564 463.893736 
z
" clip-path="url(#p5c4a84dc1d)"/>
   </g>
   <g id="patch_131">
    <path d="M 1458.029704 280.621009 
L 1476.966355 280.621009 
L 1476.966355 326.439191 
L 1458.029704 326.439191 
z
" clip-path="url(#p5c4a84dc1d)"/>
   </g>
   <g id="patch_132">
    <path d="M 1495.903007 280.621009 
L 1514.839658 280.621009 
L 1514.839658 326.439191 
L 1495.903007 326.439191 
z
" clip-path="url(#p5c4a84dc1d)"/>
   </g>
   <g id="patch_133">
    <path d="M 1533.77631 280.621009 
L 1552.712962 280.621009 
L 1552.712962 418.075555 
L 1533.77631 418.075555 
z
" clip-path="url(#p5c4a84dc1d)"/>
   </g>
   <g id="patch_134">
    <path d="M 1571.649613 280.621009 
L 1590.586265 280.621009 
L 1590.586265 326.439191 
L 1571.649613 326.439191 
z
" clip-path="url(#p5c4a84dc1d)"/>
   </g>
   <g id="patch_135">
    <path d="M 1609.522916 280.621009 
L 1628.459568 280.621009 
L 1628.459568 280.621009 
L 1609.522916 280.621009 
z
" clip-path="url(#p5c4a84dc1d)"/>
   </g>
   <g id="patch_136">
    <path d="M 1647.396219 280.621009 
L 1666.332871 280.621009 
L 1666.332871 372.257373 
L 1647.396219 372.257373 
z
" clip-path="url(#p5c4a84dc1d)"/>
   </g>
   <g id="patch_137">
    <path d="M 1685.269523 280.621009 
L 1704.206174 280.621009 
L 1704.206174 372.257373 
L 1685.269523 372.257373 
z
" clip-path="url(#p5c4a84dc1d)"/>
   </g>
   <g id="matplotlib.axis_5">
    <g id="xtick_27">
     <g id="line2d_39">
      <g>
       <use xlink:href="#m38eedd3d48" x="1240.25821" y="580.7301" style="stroke: #000000; stroke-width: 0.8"/>
      </g>
     </g>
     <g id="text_43">
      <!-- 0 -->
      <g transform="translate(1245.02641 598.7245) rotate(-90) scale(0.1728 -0.1728)">
       <use xlink:href="#DejaVuSans-30"/>
      </g>
     </g>
    </g>
    <g id="xtick_28">
     <g id="line2d_40">
      <g>
       <use xlink:href="#m38eedd3d48" x="1278.131514" y="580.7301" style="stroke: #000000; stroke-width: 0.8"/>
      </g>
     </g>
     <g id="text_44">
      <!-- 1 -->
      <g transform="translate(1282.899714 598.7245) rotate(-90) scale(0.1728 -0.1728)">
       <use xlink:href="#DejaVuSans-31"/>
      </g>
     </g>
    </g>
    <g id="xtick_29">
     <g id="line2d_41">
      <g>
       <use xlink:href="#m38eedd3d48" x="1316.004817" y="580.7301" style="stroke: #000000; stroke-width: 0.8"/>
      </g>
     </g>
     <g id="text_45">
      <!-- 2 -->
      <g transform="translate(1320.773017 598.7245) rotate(-90) scale(0.1728 -0.1728)">
       <use xlink:href="#DejaVuSans-32"/>
      </g>
     </g>
    </g>
    <g id="xtick_30">
     <g id="line2d_42">
      <g>
       <use xlink:href="#m38eedd3d48" x="1353.87812" y="580.7301" style="stroke: #000000; stroke-width: 0.8"/>
      </g>
     </g>
     <g id="text_46">
      <!-- 3 -->
      <g transform="translate(1358.64632 598.7245) rotate(-90) scale(0.1728 -0.1728)">
       <use xlink:href="#DejaVuSans-33"/>
      </g>
     </g>
    </g>
    <g id="xtick_31">
     <g id="line2d_43">
      <g>
       <use xlink:href="#m38eedd3d48" x="1391.751423" y="580.7301" style="stroke: #000000; stroke-width: 0.8"/>
      </g>
     </g>
     <g id="text_47">
      <!-- 4 -->
      <g transform="translate(1396.519623 598.7245) rotate(-90) scale(0.1728 -0.1728)">
       <use xlink:href="#DejaVuSans-34"/>
      </g>
     </g>
    </g>
    <g id="xtick_32">
     <g id="line2d_44">
      <g>
       <use xlink:href="#m38eedd3d48" x="1429.624726" y="580.7301" style="stroke: #000000; stroke-width: 0.8"/>
      </g>
     </g>
     <g id="text_48">
      <!-- 5 -->
      <g transform="translate(1434.392926 598.7245) rotate(-90) scale(0.1728 -0.1728)">
       <use xlink:href="#DejaVuSans-35"/>
      </g>
     </g>
    </g>
    <g id="xtick_33">
     <g id="line2d_45">
      <g>
       <use xlink:href="#m38eedd3d48" x="1467.498029" y="580.7301" style="stroke: #000000; stroke-width: 0.8"/>
      </g>
     </g>
     <g id="text_49">
      <!-- 6 -->
      <g transform="translate(1472.266229 598.7245) rotate(-90) scale(0.1728 -0.1728)">
       <use xlink:href="#DejaVuSans-36"/>
      </g>
     </g>
    </g>
    <g id="xtick_34">
     <g id="line2d_46">
      <g>
       <use xlink:href="#m38eedd3d48" x="1505.371333" y="580.7301" style="stroke: #000000; stroke-width: 0.8"/>
      </g>
     </g>
     <g id="text_50">
      <!-- 7 -->
      <g transform="translate(1510.139533 598.7245) rotate(-90) scale(0.1728 -0.1728)">
       <use xlink:href="#DejaVuSans-37"/>
      </g>
     </g>
    </g>
    <g id="xtick_35">
     <g id="line2d_47">
      <g>
       <use xlink:href="#m38eedd3d48" x="1543.244636" y="580.7301" style="stroke: #000000; stroke-width: 0.8"/>
      </g>
     </g>
     <g id="text_51">
      <!-- 8 -->
      <g transform="translate(1548.012836 598.7245) rotate(-90) scale(0.1728 -0.1728)">
       <use xlink:href="#DejaVuSans-38"/>
      </g>
     </g>
    </g>
    <g id="xtick_36">
     <g id="line2d_48">
      <g>
       <use xlink:href="#m38eedd3d48" x="1581.117939" y="580.7301" style="stroke: #000000; stroke-width: 0.8"/>
      </g>
     </g>
     <g id="text_52">
      <!-- 9 -->
      <g transform="translate(1585.886139 598.7245) rotate(-90) scale(0.1728 -0.1728)">
       <use xlink:href="#DejaVuSans-39"/>
      </g>
     </g>
    </g>
    <g id="xtick_37">
     <g id="line2d_49">
      <g>
       <use xlink:href="#m38eedd3d48" x="1618.991242" y="580.7301" style="stroke: #000000; stroke-width: 0.8"/>
      </g>
     </g>
     <g id="text_53">
      <!-- 10 -->
      <g transform="translate(1623.759442 609.7189) rotate(-90) scale(0.1728 -0.1728)">
       <use xlink:href="#DejaVuSans-31"/>
       <use xlink:href="#DejaVuSans-30" x="63.623047"/>
      </g>
     </g>
    </g>
    <g id="xtick_38">
     <g id="line2d_50">
      <g>
       <use xlink:href="#m38eedd3d48" x="1656.864545" y="580.7301" style="stroke: #000000; stroke-width: 0.8"/>
      </g>
     </g>
     <g id="text_54">
      <!-- 11 -->
      <g transform="translate(1661.632745 609.7189) rotate(-90) scale(0.1728 -0.1728)">
       <use xlink:href="#DejaVuSans-31"/>
       <use xlink:href="#DejaVuSans-31" x="63.623047"/>
      </g>
     </g>
    </g>
    <g id="xtick_39">
     <g id="line2d_51">
      <g>
       <use xlink:href="#m38eedd3d48" x="1694.737848" y="580.7301" style="stroke: #000000; stroke-width: 0.8"/>
      </g>
     </g>
     <g id="text_55">
      <!-- 12 -->
      <g transform="translate(1699.506048 609.7189) rotate(-90) scale(0.1728 -0.1728)">
       <use xlink:href="#DejaVuSans-31"/>
       <use xlink:href="#DejaVuSans-32" x="63.623047"/>
      </g>
     </g>
    </g>
    <g id="text_56">
     <!-- Sequence nb -->
     <g transform="translate(1411.170629 626.849) scale(0.1728 -0.1728)">
      <use xlink:href="#DejaVuSans-53"/>
      <use xlink:href="#DejaVuSans-65" x="63.476562"/>
      <use xlink:href="#DejaVuSans-71" x="125"/>
      <use xlink:href="#DejaVuSans-75" x="188.476562"/>
      <use xlink:href="#DejaVuSans-65" x="251.855469"/>
      <use xlink:href="#DejaVuSans-6e" x="313.378906"/>
      <use xlink:href="#DejaVuSans-63" x="376.757812"/>
      <use xlink:href="#DejaVuSans-65" x="431.738281"/>
      <use xlink:href="#DejaVuSans-20" x="493.261719"/>
      <use xlink:href="#DejaVuSans-6e" x="525.048828"/>
      <use xlink:href="#DejaVuSans-62" x="588.427734"/>
     </g>
    </g>
   </g>
   <g id="matplotlib.axis_6">
    <g id="ytick_13">
     <g id="line2d_52">
      <g>
       <use xlink:href="#m70c8d4ccd8" x="1221.321559" y="555.5301" style="stroke: #000000; stroke-width: 0.8"/>
      </g>
     </g>
    </g>
    <g id="ytick_14">
     <g id="line2d_53">
      <g>
       <use xlink:href="#m70c8d4ccd8" x="1221.321559" y="463.893736" style="stroke: #000000; stroke-width: 0.8"/>
      </g>
     </g>
    </g>
    <g id="ytick_15">
     <g id="line2d_54">
      <g>
       <use xlink:href="#m70c8d4ccd8" x="1221.321559" y="372.257373" style="stroke: #000000; stroke-width: 0.8"/>
      </g>
     </g>
    </g>
    <g id="ytick_16">
     <g id="line2d_55">
      <g>
       <use xlink:href="#m70c8d4ccd8" x="1221.321559" y="280.621009" style="stroke: #000000; stroke-width: 0.8"/>
      </g>
     </g>
    </g>
    <g id="ytick_17">
     <g id="line2d_56">
      <g>
       <use xlink:href="#m70c8d4ccd8" x="1221.321559" y="188.984645" style="stroke: #000000; stroke-width: 0.8"/>
      </g>
     </g>
    </g>
    <g id="ytick_18">
     <g id="line2d_57">
      <g>
       <use xlink:href="#m70c8d4ccd8" x="1221.321559" y="97.348282" style="stroke: #000000; stroke-width: 0.8"/>
      </g>
     </g>
    </g>
   </g>
   <g id="patch_138">
    <path d="M 1221.321559 580.7301 
L 1221.321559 26.3301 
" style="fill: none; stroke: #000000; stroke-width: 0.8; stroke-linejoin: miter; stroke-linecap: square"/>
   </g>
   <g id="patch_139">
    <path d="M 1713.6745 580.7301 
L 1713.6745 26.3301 
" style="fill: none; stroke: #000000; stroke-width: 0.8; stroke-linejoin: miter; stroke-linecap: square"/>
   </g>
   <g id="patch_140">
    <path d="M 1221.321559 580.7301 
L 1713.6745 580.7301 
" style="fill: none; stroke: #000000; stroke-width: 0.8; stroke-linejoin: miter; stroke-linecap: square"/>
   </g>
   <g id="patch_141">
    <path d="M 1221.321559 26.3301 
L 1713.6745 26.3301 
" style="fill: none; stroke: #000000; stroke-width: 0.8; stroke-linejoin: miter; stroke-linecap: square"/>
   </g>
   <g id="text_57">
    <!-- Ours -->
    <g transform="translate(1447.168379 20.3301) scale(0.1728 -0.1728)">
     <defs>
      <path id="DejaVuSans-73" d="M 2834 3397 
L 2834 2853 
Q 2591 2978 2328 3040 
Q 2066 3103 1784 3103 
Q 1356 3103 1142 2972 
Q 928 2841 928 2578 
Q 928 2378 1081 2264 
Q 1234 2150 1697 2047 
L 1894 2003 
Q 2506 1872 2764 1633 
Q 3022 1394 3022 966 
Q 3022 478 2636 193 
Q 2250 -91 1575 -91 
Q 1294 -91 989 -36 
Q 684 19 347 128 
L 347 722 
Q 666 556 975 473 
Q 1284 391 1588 391 
Q 1994 391 2212 530 
Q 2431 669 2431 922 
Q 2431 1156 2273 1281 
Q 2116 1406 1581 1522 
L 1381 1569 
Q 847 1681 609 1914 
Q 372 2147 372 2553 
Q 372 3047 722 3315 
Q 1072 3584 1716 3584 
Q 2034 3584 2315 3537 
Q 2597 3491 2834 3397 
z
" transform="scale(0.015625)"/>
     </defs>
     <use xlink:href="#DejaVuSans-4f"/>
     <use xlink:href="#DejaVuSans-75" x="78.710938"/>
     <use xlink:href="#DejaVuSans-72" x="142.089844"/>
     <use xlink:href="#DejaVuSans-73" x="183.203125"/>
    </g>
   </g>
   <g id="legend_3">
    <g id="patch_142">
     <path d="M 1596.6889 132.4293 
L 1701.5785 132.4293 
Q 1705.0345 132.4293 1705.0345 128.9733 
L 1705.0345 38.4261 
Q 1705.0345 34.9701 1701.5785 34.9701 
L 1596.6889 34.9701 
Q 1593.2329 34.9701 1593.2329 38.4261 
L 1593.2329 128.9733 
Q 1593.2329 132.4293 1596.6889 132.4293 
z
" style="fill: #ffffff; opacity: 0.8; stroke: #cccccc; stroke-linejoin: miter"/>
    </g>
    <g id="patch_143">
     <path d="M 1600.1449 60.4068 
L 1634.7049 60.4068 
L 1634.7049 48.3108 
L 1600.1449 48.3108 
z
" style="fill: #ffa500"/>
    </g>
    <g id="text_58">
     <!-- $\hat{\mathsf{N}}_{red}$ -->
     <g transform="translate(1648.5289 60.4068) scale(0.1728 -0.1728)">
      <use xlink:href="#DejaVuSans-302" transform="translate(71.279297 30.015625)"/>
      <use xlink:href="#DejaVuSans-4e" transform="translate(0 0.609375)"/>
      <use xlink:href="#DejaVuSans-Oblique-72" transform="translate(75.761719 -15.796875) scale(0.7)"/>
      <use xlink:href="#DejaVuSans-Oblique-65" transform="translate(104.541016 -15.796875) scale(0.7)"/>
      <use xlink:href="#DejaVuSans-Oblique-64" transform="translate(147.607422 -15.796875) scale(0.7)"/>
     </g>
    </g>
    <g id="patch_144">
     <path d="M 1600.1449 91.1652 
L 1634.7049 91.1652 
L 1634.7049 79.0692 
L 1600.1449 79.0692 
z
" style="fill: #ff0000"/>
    </g>
    <g id="text_59">
     <!-- $\hat{\mathsf{N}}_{false}$ -->
     <g transform="translate(1648.5289 91.1652) scale(0.1728 -0.1728)">
      <use xlink:href="#DejaVuSans-302" transform="translate(71.279297 30.015625)"/>
      <use xlink:href="#DejaVuSans-4e" transform="translate(0 0.609375)"/>
      <use xlink:href="#DejaVuSans-Oblique-66" transform="translate(75.761719 -15.796875) scale(0.7)"/>
      <use xlink:href="#DejaVuSans-Oblique-61" transform="translate(100.405273 -15.796875) scale(0.7)"/>
      <use xlink:href="#DejaVuSans-Oblique-6c" transform="translate(143.300781 -15.796875) scale(0.7)"/>
      <use xlink:href="#DejaVuSans-Oblique-73" transform="translate(162.749023 -15.796875) scale(0.7)"/>
      <use xlink:href="#DejaVuSans-Oblique-65" transform="translate(199.21875 -15.796875) scale(0.7)"/>
     </g>
    </g>
    <g id="patch_145">
     <path d="M 1600.1449 121.9236 
L 1634.7049 121.9236 
L 1634.7049 109.8276 
L 1600.1449 109.8276 
z
"/>
    </g>
    <g id="text_60">
     <!-- $-\hat{\mathsf{N}}_{mis}$ -->
     <g transform="translate(1648.5289 121.9236) scale(0.1728 -0.1728)">
      <use xlink:href="#DejaVuSans-2212" transform="translate(0 0.609375)"/>
      <use xlink:href="#DejaVuSans-302" transform="translate(155.068359 30.015625)"/>
      <use xlink:href="#DejaVuSans-4e" transform="translate(83.789062 0.609375)"/>
      <use xlink:href="#DejaVuSans-Oblique-6d" transform="translate(159.550781 -15.796875) scale(0.7)"/>
      <use xlink:href="#DejaVuSans-Oblique-69" transform="translate(227.739258 -15.796875) scale(0.7)"/>
      <use xlink:href="#DejaVuSans-Oblique-73" transform="translate(247.1875 -15.796875) scale(0.7)"/>
     </g>
    </g>
   </g>
  </g>
 </g>
 <defs>
  <clipPath id="p326b711656">
   <rect x="39.6745" y="26.3301" width="492.352941" height="554.4"/>
  </clipPath>
  <clipPath id="pad4be2aba6">
   <rect x="630.498029" y="26.3301" width="492.352941" height="554.4"/>
  </clipPath>
  <clipPath id="p5c4a84dc1d">
   <rect x="1221.321559" y="26.3301" width="492.352941" height="554.4"/>
  </clipPath>
 </defs>
</svg>
